<svg viewBox="-250 -250 500 500" width="500" height="500" xmlns="http://www.w3.org/2000/svg"><path d="M-42.742163600779385,-241.20537284462634L-75.0399385344445,-230.85767769412152L-106.67796859927756,-216.99947728976684zM-106.67796859927756,-216.99947728976684L-136.83879656398258,-200.0244315484973L-10.643487393489153,-247.6767521610068zM-106.67796859927756,-216.99947728976684L-10.643487393489153,-247.6767521610068L-42.742163600779385,-241.20537284462634zM-136.83879656398258,-200.0244315484973L-164.72468369577803,-180.35893409631194L20.3355476814232,-249.93687232875348zM-136.83879656398258,-200.0244315484973L20.3355476814232,-249.93687232875348L-10.643487393489153,-247.6767521610068z" style="fill:rgb(83,212,212)"/><path d="M206.39580033247964,62.207893899794826L121.03433069932112,-191.37558538455642L209.39503986746308,87.53939432923785z" style="fill:rgb(247,153,162)"/><path d="M-164.72468369577803,-180.35893409631194L-189.5405343462324,-158.47531616733127L49.19647772223625,-247.6964049640473z" style="fill:rgb(83,212,212)"/><path d="M-55.56489701880221,217.2608734634682L-211.99682874631392,-0.6865795511256514L-72.99369750244662,199.14584972452707z" style="fill:rgb(32,47,158)"/><path d="M-164.72468369577803,-180.35893409631194L49.19647772223625,-247.6964049640473L20.3355476814232,-249.93687232875348zM-189.5405343462324,-158.47531616733127L-210.48178650262423,-134.9091504969435L74.85851055143159,-240.73745625131073z" style="fill:rgb(83,212,212)"/><path d="M209.39503986746308,87.53939432923785L122.43045095957737,-166.4346728435706L205.65095682542642,114.6698784223948z" style="fill:rgb(243,134,179)"/><path d="M-189.5405343462324,-158.47531616733127L74.85851055143159,-240.73745625131073L49.19647772223625,-247.6964049640473z" style="fill:rgb(83,212,212)"/><path d="M-32.5912952756539,231.1883610128209L-186.95185693416758,11.218876108666597L-55.56489701880221,217.2608734634682z" style="fill:rgb(49,39,175)"/><path d="M21.403555821538436,-190.64371819973647L-210.48178650262423,-134.9091504969435L-222.44373573371874,-116.78170727189902zM21.403555821538436,-190.64371819973647L-222.44373573371874,-116.78170727189902L-226.7339200725387,-110.28011370371262z" style="fill:rgb(83,212,212)"/><path d="M205.65095682542642,114.6698784223948L115.40708905293027,-138.48523810006836L194.93835359584426,142.34394971382508z" style="fill:rgb(235,115,194)"/><path d="M-4.864916694176952,239.97180246180895L-155.1440552741579,17.281400273378303L-32.5912952756539,231.1883610128209z" style="fill:rgb(69,33,191)"/><path d="M-210.48178650262423,-134.9091504969435L96.16984799534367,-228.954342353436L74.85851055143159,-240.73745625131073z" style="fill:rgb(83,212,212)"/><path d="M194.93835359584426,142.34394971382508L99.67499273503115,-108.7709584119667L177.45380934837294,169.13397509486836z" style="fill:rgb(222,96,207)"/><path d="M111.9450838202884,-212.4054649730794L-226.7339200725387,-110.28011370371262L-237.48605224016984,-85.31192626259177zM-210.48178650262423,-134.9091504969435L21.403555821538436,-190.64371819973647L107.7560733666897,-216.79993097889113zM-210.48178650262423,-134.9091504969435L107.7560733666897,-216.79993097889113L96.16984799534367,-228.954342353436z" style="fill:rgb(83,212,212)"/><path d="M26.431918496914808,242.87019807365002L-117.85285538247216,16.752837325653964L-4.864916694176952,239.97180246180895z" style="fill:rgb(91,32,204)"/><path d="M-72.99369750244662,199.14584972452707L-211.99682874631392,-0.6865795511256514L-229.5751295630534,-17.424597734010334z" style="fill:rgb(32,47,158)"/><path d="M21.403555821538436,-190.64371819973647L-226.7339200725387,-110.28011370371262L111.9450838202884,-212.4054649730794z" style="fill:rgb(83,212,212)"/><path d="M177.45380934837294,169.13397509486836L75.52499396969755,-78.83534915177192L153.86856436141463,193.5449129597924z" style="fill:rgb(205,79,215)"/><path d="M59.76707439590405,239.46530552492695L-76.91911840305302,9.28665870489341L26.431918496914808,242.87019807365002z" style="fill:rgb(115,34,214)"/><path d="M209.39503986746308,87.53939432923785L121.03433069932112,-191.37558538455642L122.43045095957737,-166.4346728435706z" style="fill:rgb(247,153,162)"/><path d="M153.86856436141463,193.5449129597924L43.917003627074386,-50.412279703980104L125.32396478181609,214.1518646035158z" style="fill:rgb(185,63,221)"/><path d="M93.3579221690444,229.7466350139244L-34.63373569151873,-4.954725232433588L59.76707439590405,239.46530552492695z" style="fill:rgb(139,40,220)"/><path d="M125.32396478181609,214.1518646035158L6.474680494272217,-25.258755026529816L93.3579221690444,229.7466350139244z" style="fill:rgb(163,50,222)"/><path d="M121.03433069932112,-191.37558538455642L-237.48605224016984,-85.31192626259177L-241.96527206345542,-60.84903314704022z" style="fill:rgb(83,212,212)"/><path d="M-55.56489701880221,217.2608734634682L-186.95185693416758,11.218876108666597L-211.99682874631392,-0.6865795511256514z" style="fill:rgb(49,39,175)"/><path d="M21.403555821538436,-190.64371819973647L111.9450838202884,-212.4054649730794L107.7560733666897,-216.79993097889113zM111.9450838202884,-212.4054649730794L-237.48605224016984,-85.31192626259177L121.03433069932112,-191.37558538455642z" style="fill:rgb(83,212,212)"/><path d="M205.65095682542642,114.6698784223948L122.43045095957737,-166.4346728435706L115.40708905293027,-138.48523810006836z" style="fill:rgb(243,134,179)"/><path d="M122.43045095957737,-166.4346728435706L-241.96527206345542,-60.84903314704022L-239.49416300660508,-37.860544665579454z" style="fill:rgb(83,212,212)"/><path d="M-32.5912952756539,231.1883610128209L-155.1440552741579,17.281400273378303L-186.95185693416758,11.218876108666597z" style="fill:rgb(69,33,191)"/><path d="M121.03433069932112,-191.37558538455642L-241.96527206345542,-60.84903314704022L122.43045095957737,-166.4346728435706z" style="fill:rgb(83,212,212)"/><path d="M194.93835359584426,142.34394971382508L115.40708905293027,-138.48523810006836L99.67499273503115,-108.7709584119667z" style="fill:rgb(235,115,194)"/><path d="M-4.864916694176952,239.97180246180895L-117.85285538247216,16.752837325653964L-155.1440552741579,17.281400273378303z" style="fill:rgb(91,32,204)"/><path d="M115.40708905293027,-138.48523810006836L-239.49416300660508,-37.860544665579454L-229.5751295630534,-17.424597734010334z" style="fill:rgb(83,212,212)"/><path d="M177.45380934837294,169.13397509486836L99.67499273503115,-108.7709584119667L75.52499396969755,-78.83534915177192z" style="fill:rgb(222,96,207)"/><path d="M122.43045095957737,-166.4346728435706L-239.49416300660508,-37.860544665579454L115.40708905293027,-138.48523810006836z" style="fill:rgb(83,212,212)"/><path d="M26.431918496914808,242.87019807365002L-76.91911840305302,9.28665870489341L-117.85285538247216,16.752837325653964z" style="fill:rgb(115,34,214)"/><path d="M153.86856436141463,193.5449129597924L75.52499396969755,-78.83534915177192L43.917003627074386,-50.412279703980104z" style="fill:rgb(205,79,215)"/><path d="M59.76707439590405,239.46530552492695L-34.63373569151873,-4.954725232433588L-76.91911840305302,9.28665870489341z" style="fill:rgb(139,40,220)"/><path d="M99.67499273503115,-108.7709584119667L-229.5751295630534,-17.424597734010334L-211.99682874631392,-0.6865795511256514z" style="fill:rgb(83,212,212)"/><path d="M125.32396478181609,214.1518646035158L43.917003627074386,-50.412279703980104L6.474680494272217,-25.258755026529816z" style="fill:rgb(185,63,221)"/><path d="M93.3579221690444,229.7466350139244L6.474680494272217,-25.258755026529816L-34.63373569151873,-4.954725232433588z" style="fill:rgb(163,50,222)"/><path d="M115.40708905293027,-138.48523810006836L-229.5751295630534,-17.424597734010334L99.67499273503115,-108.7709584119667zM75.52499396969755,-78.83534915177192L-211.99682874631392,-0.6865795511256514L-186.95185693416758,11.218876108666597zM99.67499273503115,-108.7709584119667L-211.99682874631392,-0.6865795511256514L75.52499396969755,-78.83534915177192zM43.917003627074386,-50.412279703980104L-186.95185693416758,11.218876108666597L-155.1440552741579,17.281400273378303zM75.52499396969755,-78.83534915177192L-186.95185693416758,11.218876108666597L43.917003627074386,-50.412279703980104zM6.474680494272217,-25.258755026529816L-155.1440552741579,17.281400273378303L-117.85285538247216,16.752837325653964zM43.917003627074386,-50.412279703980104L-155.1440552741579,17.281400273378303L6.474680494272217,-25.258755026529816zM-34.63373569151873,-4.954725232433588L-117.85285538247216,16.752837325653964L-76.91911840305302,9.28665870489341zM6.474680494272217,-25.258755026529816L-117.85285538247216,16.752837325653964L-34.63373569151873,-4.954725232433588z" style="fill:rgb(83,212,212)"/></svg>