<svg viewBox="-250 -250 500 500" width="500" height="500" xmlns="http://www.w3.org/2000/svg"><path d="M-87.81205122434423,3.4816129892986645L-40.829862359835346,122.49387398842134L-32.756917183590716,114.76533678538875z" style="fill:rgb(221,130,213)"/><path d="M-99.08639633372012,-0.04382958290246052L-109.72461811184348,-0.043334730696249095L-128.06879094440737,13.506182657054337z" style="fill:rgb(82,237,172)"/><path d="M-96.2844480168691,10.595950248404408L-48.02196145491902,130.3948199095727L-40.829862359835346,122.49387398842134z" style="fill:rgb(228,137,204)"/><path d="M-87.81205122434423,3.4816129892986645L-32.756917183590716,114.76533678538875L-83.38002671300589,-0.044560187612163134z" style="fill:rgb(221,130,213)"/><path d="M-117.79776883576925,8.704240934884734L-128.06879094440737,13.506182657054337L-128.31806317582019,13.690277876171654zM-84.31529162800204,-0.04451668241745778L-99.08639633372012,-0.04382958290246052L-117.79776883576925,8.704240934884734z" style="fill:rgb(82,237,172)"/><path d="M-87.81205122434423,3.4816129892986645L-92.28329266931513,7.038885124548055L-40.829862359835346,122.49387398842134z" style="fill:rgb(221,130,213)"/><path d="M-103.85147651415403,17.748774333573117L-54.25081586720379,138.4099975671731L-48.02196145491902,130.3948199095727z" style="fill:rgb(234,143,195)"/><path d="M-96.2844480168691,10.595950248404408L-40.829862359835346,122.49387398842134L-92.28329266931513,7.038885124548055z" style="fill:rgb(228,137,204)"/><path d="M-83.38002671300589,-0.044560187612163134L-84.31529162800204,-0.04451668241745778L-88.30033388850158,3.49824905054794z" style="fill:rgb(82,237,172)"/><path d="M-96.2844480168691,10.595950248404408L-100.32479484775364,14.187731076049856L-48.02196145491902,130.3948199095727z" style="fill:rgb(228,137,204)"/><path d="M-110.42457976212751,24.883867007065305L-59.43534481669364,146.47669339494865L-54.25081586720379,138.4099975671731z" style="fill:rgb(239,149,184)"/><path d="M-83.38002671300589,-0.044560187612163134L-88.30033388850158,3.49824905054794L-92.28329266931513,7.038885124548055z" style="fill:rgb(82,237,172)"/><path d="M-103.85147651415403,17.748774333573117L-48.02196145491902,130.3948199095727L-100.32479484775364,14.187731076049856z" style="fill:rgb(234,143,195)"/><path d="M-84.31529162800204,-0.04451668241745778L-117.79776883576925,8.704240934884734L-121.9326854582817,33.39705723817815z" style="fill:rgb(82,237,172)"/><path d="M-103.85147651415403,17.748774333573117L-107.41591100800073,21.347801731451693L-54.25081586720379,138.4099975671731z" style="fill:rgb(234,143,195)"/><path d="M-115.91552557148039,31.94135613447415L-63.49627971177371,154.52755667777723L-59.43534481669364,146.47669339494865z" style="fill:rgb(242,155,174)"/><path d="M-110.42457976212751,24.883867007065305L-54.25081586720379,138.4099975671731L-107.41591100800073,21.347801731451693zM-110.42457976212751,24.883867007065305L-113.46793949789897,28.46070570317499L-59.43534481669364,146.47669339494865z" style="fill:rgb(239,149,184)"/><path d="M-117.79776883576925,8.704240934884734L-128.31806317582019,13.690277876171654L-125.57397802179213,55.14151502689163z" style="fill:rgb(82,237,172)"/><path d="M-120.23764564989537,38.85704485567084L-66.35761911401897,162.48981958644956L-63.49627971177371,154.52755667777723z" style="fill:rgb(245,161,162)"/><path d="M-115.91552557148039,31.94135613447415L-59.43534481669364,146.47669339494865L-113.46793949789897,28.46070570317499z" style="fill:rgb(242,155,174)"/><path d="M-100.32479484775364,14.187731076049856L-108.61145796215524,21.554554439685674L-111.03747955408828,25.004373702691822zM-107.41591100800073,21.347801731451693L-111.03747955408828,25.004373702691822L-113.46793949789897,28.46070570317499z" style="fill:rgb(82,237,172)"/><path d="M-115.91552557148039,31.94135613447415L-118.39312674877085,35.4645342624622L-63.49627971177371,154.52755667777723z" style="fill:rgb(242,155,174)"/><path d="M-120.23764564989537,38.85704485567084L-63.49627971177371,154.52755667777723L-118.39312674877085,35.4645342624622z" style="fill:rgb(245,161,162)"/><path d="M-123.30743056366126,45.56293566622077L-67.94827679704154,170.28640152481665L-66.35761911401897,162.48981958644956z" style="fill:rgb(246,166,151)"/><path d="M-120.91425988556246,39.04979165733555L-108.61145796215524,21.554554439685674L-117.33575849376591,29.310418476327655z" style="fill:rgb(82,237,172)"/><path d="M-120.23764564989537,38.85704485567084L-122.10595314702559,42.29313362677565L-66.35761911401897,162.48981958644956z" style="fill:rgb(245,161,162)"/><path d="M-123.30743056366126,45.56293566622077L-66.35761911401897,162.48981958644956L-122.10595314702559,42.29313362677565z" style="fill:rgb(246,166,151)"/><path d="M-125.04589431270213,51.98750764044844L-68.2038519712137,177.8354641199081L-67.94827679704154,170.28640152481665z" style="fill:rgb(246,171,139)"/><path d="M-117.33575849376591,29.310418476327655L-121.9326854582817,33.39705723817815L-124.52499528114461,48.876557658239776zM-118.39312674877085,35.4645342624622L-120.91425988556246,39.04979165733555L-122.10595314702559,42.29313362677565z" style="fill:rgb(82,237,172)"/><path d="M-123.30743056366126,45.56293566622077L-124.52499528114461,48.876557658239776L-67.94827679704154,170.28640152481665z" style="fill:rgb(246,166,151)"/><path d="M-125.04589431270213,51.98750764044844L-67.94827679704154,170.28640152481665L-124.52499528114461,48.876557658239776z" style="fill:rgb(246,171,139)"/><path d="M-125.38109431122516,58.055843803074254L-67.06856088876526,185.05106410445748L-68.2038519712137,177.8354641199081z" style="fill:rgb(245,175,126)"/><path d="M-128.31806317582019,13.690277876171654L-208.84711735415007,73.17110549873483L-123.88611335156433,80.63880027366326z" style="fill:rgb(82,237,172)"/><path d="M-125.04589431270213,51.98750764044844L-125.57397802179213,55.14151502689163L-68.2038519712137,177.8354641199081z" style="fill:rgb(246,171,139)"/><path d="M-149.6875444091312,190.77008149059048L-116.93900422432095,81.37646554710663L-208.9854959656809,73.27334984156833z" style="fill:rgb(49,63,205)"/><path d="M-125.38109431122516,58.055843803074254L-68.2038519712137,177.8354641199081L-125.57397802179213,55.14151502689163z" style="fill:rgb(245,175,126)"/><path d="M-124.25035775861447,63.690479068610934L-64.49817950878804,191.84427301803174L-67.06856088876526,185.05106410445748z" style="fill:rgb(243,179,114)"/><path d="M-125.38109431122516,58.055843803074254L-125.18550376218023,61.01128582097998L-67.06856088876526,185.05106410445748z" style="fill:rgb(245,175,126)"/><path d="M162.98197251269568,-50.99822623098421L209.27970810804425,87.32275763990779L207.28014236073975,80.21611228454931z" style="fill:rgb(246,166,151)"/><path d="M-208.84711735415007,73.17110549873483L-208.9854959656809,73.27334984156833L-116.93900422432095,81.37646554710663z" style="fill:rgb(82,237,172)"/><path d="M-124.25035775861447,63.690479068610934L-67.06856088876526,185.05106410445748L-125.18550376218023,61.01128582097998z" style="fill:rgb(243,179,114)"/><path d="M-56.24998108640946,210.76149499346712L-116.93900422432095,81.37646554710663L-149.6875444091312,190.77008149059048z" style="fill:rgb(49,63,205)"/><path d="M-119.8800198902991,71.25117378301904L-64.49817950878804,191.84427301803174L-60.46214547749365,198.12345322869658z" style="fill:rgb(15,71,152)"/><path d="M-124.25035775861447,63.690479068610934L-123.30194009483407,66.4076369023831L-64.49817950878804,191.84427301803174z" style="fill:rgb(243,179,114)"/><path d="M-52.07594115554591,206.72656372173853L-51.54817124335542,206.216351937232L-54.257917666540905,200.4033721365815z" style="fill:rgb(217,127,217)"/><path d="M164.46216015181145,-45.365888335421616L209.80440546434988,95.03732266251058L209.27970810804425,87.32275763990779z" style="fill:rgb(245,161,162)"/><path d="M-52.07594115554591,206.72656372173853L-54.257917666540905,200.4033721365815L-54.48194769432749,201.56864747859106zM-54.48194769432749,201.56864747859106L-56.1221419853342,210.6378806713352L-52.07594115554591,206.72656372173853zM-54.48194769432749,201.56864747859106L-56.195977103363965,210.48045440394964L-56.1221419853342,210.6378806713352zM-56.195977103363965,210.48045440394964L-56.24998108640946,210.76149499346712L-56.1221419853342,210.6378806713352z" style="fill:rgb(217,127,217)"/><path d="M-121.60300467258597,68.81240291590255L-123.30194009483407,66.4076369023831L-64.49817950878804,191.84427301803174z" style="fill:rgb(15,71,152)"/><path d="M83.54548269918585,-157.34218201877076L-41.0247368392174,-173.56988160309328L-54.31459032922866,-168.28410801235586zM83.54548269918585,-157.34218201877076L-54.31459032922866,-168.28410801235586L-67.47702879569758,-162.74459466277705zM83.54548269918585,-157.34218201877076L-27.69220462599287,-178.5678731933667L-41.0247368392174,-173.56988160309328zM83.54548269918585,-157.34218201877076L-67.47702879569758,-162.74459466277705L-80.42781814584818,-156.98644507424063z" style="fill:rgb(82,237,172)"/><path d="M-114.89264744816877,75.46304761594205L-60.46214547749365,198.12345322869658L-54.94664453995317,203.79672730645441z" style="fill:rgb(20,68,163)"/><path d="M162.98197251269568,-50.99822623098421L163.71687816555345,-48.20184800081251L209.27970810804425,87.32275763990779z" style="fill:rgb(246,166,151)"/><path d="M83.54548269918585,-157.34218201877076L-14.40236885279063,-183.24437768577513L-27.69220462599287,-178.5678731933667zM83.54548269918585,-157.34218201877076L-80.42781814584818,-156.98644507424063L-93.08253604602079,-151.04524732996336z" style="fill:rgb(82,237,172)"/><path d="M-119.8800198902991,71.25117378301904L-121.60300467258597,68.81240291590255L-64.49817950878804,191.84427301803174z" style="fill:rgb(15,71,152)"/><path d="M83.54548269918585,-157.34218201877076L-1.2419797631742577,-187.5660339886914L-14.40236885279063,-183.24437768577513zM83.54548269918585,-157.34218201877076L-93.08253604602079,-151.04524732996336L-105.3557006842473,-144.95795072309085zM-125.18550376218023,61.01128582097998L-124.98596012483736,64.02410602036369L-123.30194009483407,66.4076369023831z" style="fill:rgb(82,237,172)"/><path d="M163.71687816555345,-48.20184800081251L164.46216015181145,-45.365888335421616L209.27970810804425,87.32275763990779z" style="fill:rgb(246,166,151)"/><path d="M83.54548269918585,-157.34218201877076L11.699867280430903,-191.49907776585357L-1.2419797631742577,-187.5660339886914zM83.54548269918585,-157.34218201877076L-105.3557006842473,-144.95795072309085L-117.16067008233374,-138.7628516873389z" style="fill:rgb(82,237,172)"/><path d="M164.38883836250355,-39.085862740537L208.7890154890686,103.29347655417456L209.80440546434988,95.03732266251058z" style="fill:rgb(242,155,174)"/><path d="M83.54548269918585,-157.34218201877076L24.331979158872105,-195.0106443996031L11.699867280430903,-191.49907776585357z" style="fill:rgb(82,237,172)"/><path d="M-117.40369503191307,73.34250325878365L-119.8800198902991,71.25117378301904L-60.46214547749365,198.12345322869658z" style="fill:rgb(20,68,163)"/><path d="M83.54548269918585,-157.34218201877076L-117.16067008233374,-138.7628516873389L-128.40923293132943,-132.49998944379828z" style="fill:rgb(82,237,172)"/><path d="M-54.257917666540905,200.4033721365815L-112.29176655557153,77.6384869807054L-54.48194769432749,201.56864747859106z" style="fill:rgb(217,127,217)"/><path d="M-108.33272251045985,78.96662281751009L-54.94664453995317,203.79672730645441L-47.957162718814594,208.77294235059958z" style="fill:rgb(26,66,175)"/><path d="M164.46216015181145,-45.365888335421616L164.42574652145905,-42.24760054588425L209.80440546434988,95.03732266251058z" style="fill:rgb(245,161,162)"/><path d="M-54.48194769432749,201.56864747859106L-116.79663755943186,81.26191939116637L-56.195977103363965,210.48045440394964zM-56.195977103363965,210.48045440394964L-116.93900422432095,81.37646554710663L-56.24998108640946,210.76149499346712z" style="fill:rgb(217,127,217)"/><path d="M83.54548269918585,-157.34218201877076L36.5599800900779,-198.06712788240384L24.331979158872105,-195.0106443996031z" style="fill:rgb(82,237,172)"/><path d="M-114.89264744816877,75.46304761594205L-117.40369503191307,73.34250325878365L-60.46214547749365,198.12345322869658z" style="fill:rgb(20,68,163)"/><path d="M83.54548269918585,-157.34218201877076L-128.40923293132943,-132.49998944379828L-139.01091409898356,-126.21192224591756zM-208.84711735415007,73.17110549873483L-116.93900422432095,81.37646554710663L-116.79663755943186,81.26191939116637z" style="fill:rgb(82,237,172)"/><path d="M164.42574652145905,-42.24760054588425L164.38883836250355,-39.085862740537L209.80440546434988,95.03732266251058z" style="fill:rgb(245,161,162)"/><path d="M162.69685390823034,-32.20483190154846L206.18551376429843,112.0123095786107L208.7890154890686,103.29347655417456z" style="fill:rgb(239,149,184)"/><path d="M83.54548269918585,-157.34218201877076L48.28614703443186,-200.63597408483318L36.5599800900779,-198.06712788240384zM83.54548269918585,-157.34218201877076L-139.01091409898356,-126.21192224591756L-148.8737579885215,-119.94314884816947zM-116.3229090873866,76.2861289222926L-124.98596012483736,64.02410602036369L-124.3525503116974,73.59262745062149z" style="fill:rgb(82,237,172)"/><path d="M-111.63496022862769,77.20289994828305L-114.89264744816877,75.46304761594205L-54.94664453995317,203.79672730645441z" style="fill:rgb(26,66,175)"/><path d="M-100.21564011414465,81.68938918615198L-47.957162718814594,208.77294235059958L-39.52141005868625,212.96451242805702z" style="fill:rgb(32,65,185)"/><path d="M83.54548269918585,-157.34218201877076L59.40937440450993,-202.68415466015557L48.28614703443186,-200.63597408483318zM83.54548269918585,-157.34218201877076L-148.8737579885215,-119.94314884816947L-157.90339237923806,-113.7409299108244z" style="fill:rgb(82,237,172)"/><path d="M164.38883836250355,-39.085862740537L163.54859311611213,-35.668605913998654L208.7890154890686,103.29347655417456z" style="fill:rgb(242,155,174)"/><path d="M-108.33272251045985,78.96662281751009L-111.63496022862769,77.20289994828305L-54.94664453995317,203.79672730645441z" style="fill:rgb(26,66,175)"/><path d="M-54.257917666540905,200.4033721365815L-111.70410107725252,77.1659101596816L-112.29176655557153,77.6384869807054zM-54.48194769432749,201.56864747859106L-112.29176655557153,77.6384869807054L-116.79663755943186,81.26191939116637z" style="fill:rgb(217,127,217)"/><path d="M162.98197251269568,-50.99822623098421L113.71415074180112,-196.93281071936738L163.71687816555345,-48.20184800081251z" style="fill:rgb(246,166,151)"/><path d="M163.54859311611213,-35.668605913998654L162.69685390823034,-32.20483190154846L208.7890154890686,103.29347655417456z" style="fill:rgb(242,155,174)"/><path d="M-121.60300467258597,68.81240291590255L-188.71108031964096,-73.11862765831741L-123.30194009483407,66.4076369023831z" style="fill:rgb(15,71,152)"/><path d="M159.34000244821686,-24.782099128867646L201.96662415211776,121.10187145341602L206.18551376429843,112.0123095786107z" style="fill:rgb(234,143,195)"/><path d="M-56.195977103363965,210.48045440394964L-116.79663755943186,81.26191939116637L-116.93900422432095,81.37646554710663z" style="fill:rgb(217,127,217)"/><path d="M83.54548269918585,-157.34218201877076L69.8255530739854,-204.17985575225842L59.40937440450993,-202.68415466015557zM83.54548269918585,-157.34218201877076L-157.90339237923806,-113.7409299108244L-166.0040853544234,-107.65538456796685zM-119.8800198902991,71.25117378301904L-116.3229090873866,76.2861289222926L-112.3331555852357,77.62464667889549z" style="fill:rgb(82,237,172)"/><path d="M-104.30063766875887,80.3190441116082L-108.33272251045985,78.96662281751009L-47.957162718814594,208.77294235059958z" style="fill:rgb(32,65,185)"/><path d="M-90.58316546660306,83.56598155009357L-39.52141005868625,212.96451242805702L-29.69089995603828,216.28892104751552z" style="fill:rgb(40,64,196)"/><path d="M-124.3525503116974,73.59262745062149L-123.88611335156433,80.63880027366326L-116.79663755943186,81.26191939116637zM83.54548269918585,-157.34218201877076L79.42678997233232,-205.09275855637074L69.8255530739854,-204.17985575225842z" style="fill:rgb(82,237,172)"/><path d="M162.69685390823034,-32.20483190154846L161.0294126821447,-28.51783708516413L206.18551376429843,112.0123095786107z" style="fill:rgb(239,149,184)"/><path d="M163.71687816555345,-48.20184800081251L114.54174206478416,-193.16266165985127L164.46216015181145,-45.365888335421616z" style="fill:rgb(246,166,151)"/><path d="M83.54548269918585,-157.34218201877076L-166.0040853544234,-107.65538456796685L-173.0789299336637,-101.7393753642046zM-124.3525503116974,73.59262745062149L-116.79663755943186,81.26191939116637L-112.29176655557153,77.6384869807054z" style="fill:rgb(82,237,172)"/><path d="M-100.21564011414465,81.68938918615198L-104.30063766875887,80.3190441116082L-47.957162718814594,208.77294235059958z" style="fill:rgb(32,65,185)"/><path d="M-119.8800198902991,71.25117378301904L-186.07201486643027,-70.08506552884513L-121.60300467258597,68.81240291590255z" style="fill:rgb(15,71,152)"/><path d="M-111.70410107725252,77.1659101596816L-114.89264744816877,75.46304761594205L-112.3331555852357,77.62464667889549z" style="fill:rgb(82,237,172)"/><path d="M154.2944678258322,-16.89047089908955L196.12911244204446,130.4578290779091L201.96662415211776,121.10187145341602z" style="fill:rgb(228,137,204)"/><path d="M161.0294126821447,-28.51783708516413L159.34000244821686,-24.782099128867646L206.18551376429843,112.0123095786107z" style="fill:rgb(239,149,184)"/><path d="M164.46216015181145,-45.365888335421616L114.54174206478416,-193.16266165985127L164.42574652145905,-42.24760054588425z" style="fill:rgb(245,161,162)"/><path d="M-111.70410107725252,77.1659101596816L-112.3331555852357,77.62464667889549L-112.29176655557153,77.6384869807054z" style="fill:rgb(82,237,172)"/><path d="M-117.40369503191307,73.34250325878365L-186.07201486643027,-70.08506552884513L-119.8800198902991,71.25117378301904z" style="fill:rgb(20,68,163)"/><path d="M83.54548269918585,-157.34218201877076L88.1031564659225,-205.39348918696925L79.42678997233232,-205.09275855637074zM83.54548269918585,-157.34218201877076L-173.0789299336637,-101.7393753642046L-179.03070292785245,-96.0491178821578z" style="fill:rgb(82,237,172)"/><path d="M-79.50434619432414,84.53976058163131L-29.69089995603828,216.28892104751552L-18.543827517808626,218.6721823545257z" style="fill:rgb(49,63,205)"/><path d="M-95.42933802741913,82.62187889480933L-100.21564011414465,81.68938918615198L-39.52141005868625,212.96451242805702z" style="fill:rgb(40,64,196)"/><path d="M159.34000244821686,-24.782099128867646L156.8329433088905,-20.860854868569824L201.96662415211776,121.10187145341602z" style="fill:rgb(234,143,195)"/><path d="M163.71687816555345,-48.20184800081251L113.71415074180112,-196.93281071936738L114.54174206478416,-193.16266165985127z" style="fill:rgb(246,166,151)"/><path d="M-90.58316546660306,83.56598155009357L-95.42933802741913,82.62187889480933L-39.52141005868625,212.96451242805702z" style="fill:rgb(40,64,196)"/><path d="M164.42574652145905,-42.24760054588425L113.72568564607121,-188.7062489801694L164.38883836250355,-39.085862740537z" style="fill:rgb(245,161,162)"/><path d="M147.56236544759454,-8.615368432059611L188.69628877943046,139.9645790342919L196.12911244204446,130.4578290779091z" style="fill:rgb(221,130,213)"/><path d="M-121.60300467258597,68.81240291590255L-186.07201486643027,-70.08506552884513L-188.71108031964096,-73.11862765831741z" style="fill:rgb(15,71,152)"/><path d="M83.54548269918585,-157.34218201877076L95.74254954353191,-205.05598903307936L88.1031564659225,-205.39348918696925z" style="fill:rgb(82,237,172)"/><path d="M-114.89264744816877,75.46304761594205L-181.77393507047492,-67.71736192967951L-117.40369503191307,73.34250325878365z" style="fill:rgb(20,68,163)"/><path d="M83.54548269918585,-157.34218201877076L-179.03070292785245,-96.0491178821578L-183.76332803888812,-90.64332085946451z" style="fill:rgb(82,237,172)"/><path d="M156.8329433088905,-20.860854868569824L154.2944678258322,-16.89047089908955L201.96662415211776,121.10187145341602z" style="fill:rgb(234,143,195)"/><path d="M164.38883836250355,-39.085862740537L113.72568564607121,-188.7062489801694L163.54859311611213,-35.668605913998654z" style="fill:rgb(242,155,174)"/><path d="M-67.0782744534437,84.56575061006302L-18.543827517808626,218.6721823545257L-6.184849948391263,220.0512354602254z" style="fill:rgb(58,64,214)"/><path d="M-111.63496022862769,77.20289994828305L-181.77393507047492,-67.71736192967951L-114.89264744816877,75.46304761594205z" style="fill:rgb(26,66,175)"/><path d="M-85.07575251862043,84.05004387514911L-90.58316546660306,83.56598155009357L-29.69089995603828,216.28892104751552z" style="fill:rgb(49,63,205)"/><path d="M154.2944678258322,-16.89047089908955L150.94802809596104,-12.777124963155728L196.12911244204446,130.4578290779091z" style="fill:rgb(228,137,204)"/><path d="M83.54548269918585,-157.34218201877076L102.23264911287404,-204.05676658656446L95.74254954353191,-205.05598903307936z" style="fill:rgb(82,237,172)"/><path d="M139.17462912102604,-0.054912637623404446L179.72099359446,149.49663278603586L188.69628877943046,139.9645790342919z" style="fill:rgb(213,124,221)"/><path d="M83.54548269918585,-157.34218201877076L-183.76332803888812,-90.64332085946451L-187.18291713047756,-85.58335524699798z" style="fill:rgb(82,237,172)"/><path d="M-79.50434619432414,84.53976058163131L-85.07575251862043,84.05004387514911L-29.69089995603828,216.28892104751552z" style="fill:rgb(49,63,205)"/><path d="M150.94802809596104,-12.777124963155728L147.56236544759454,-8.615368432059611L196.12911244204446,130.4578290779091z" style="fill:rgb(228,137,204)"/><path d="M164.42574652145905,-42.24760054588425L114.54174206478416,-193.16266165985127L113.72568564607121,-188.7062489801694z" style="fill:rgb(245,161,162)"/><path d="M163.54859311611213,-35.668605913998654L111.20189191992341,-183.58565364411314L162.69685390823034,-32.20483190154846z" style="fill:rgb(242,155,174)"/><path d="M-53.43417864349594,83.6131266820806L-6.184849948391263,220.0512354602254L7.253724926989695,220.37643793929598z" style="fill:rgb(69,65,222)"/><path d="M-117.40369503191307,73.34250325878365L-181.77393507047492,-67.71736192967951L-186.07201486643027,-70.08506552884513z" style="fill:rgb(20,68,163)"/><path d="M-108.33272251045985,78.96662281751009L-175.79367624465036,-66.07376644627622L-111.63496022862769,77.20289994828305z" style="fill:rgb(26,66,175)"/><path d="M162.69685390823034,-32.20483190154846L111.20189191992341,-183.58565364411314L161.0294126821447,-28.51783708516413z" style="fill:rgb(239,149,184)"/><path d="M-73.32441835641174,84.55269379277507L-79.50434619432414,84.53976058163131L-18.543827517808626,218.6721823545257z" style="fill:rgb(58,64,214)"/><path d="M83.54548269918585,-157.34218201877076L107.46217801480044,-202.37751428222347L102.23264911287404,-204.05676658656446z" style="fill:rgb(82,237,172)"/><path d="M129.19372759690492,8.681543654439432L169.28578163083128,158.92166929588066L179.72099359446,149.49663278603586z" style="fill:rgb(204,117,228)"/><path d="M-104.30063766875887,80.3190441116082L-175.79367624465036,-66.07376644627622L-108.33272251045985,78.96662281751009z" style="fill:rgb(32,65,185)"/><path d="M83.54548269918585,-157.34218201877076L-187.18291713047756,-85.58335524699798L-189.20059687794736,-80.93265134624517z" style="fill:rgb(82,237,172)"/><path d="M147.56236544759454,-8.615368432059611L143.39087480695966,-4.358073343443609L188.69628877943046,139.9645790342919z" style="fill:rgb(221,130,213)"/><path d="M-67.0782744534437,84.56575061006302L-73.32441835641174,84.55269379277507L-18.543827517808626,218.6721823545257z" style="fill:rgb(58,64,214)"/><path d="M-38.730647992355486,81.66686513785369L7.253724926989695,220.37643793929598L21.613099166500774,219.6148224960799z" style="fill:rgb(79,66,228)"/><path d="M143.39087480695966,-4.358073343443609L139.17462912102604,-0.054912637623404446L188.69628877943046,139.9645790342919z" style="fill:rgb(221,130,213)"/><path d="M117.71500397479889,17.47517998812173L157.5044786763519,168.10285401782875L169.28578163083128,158.92166929588066z" style="fill:rgb(195,111,234)"/><path d="M161.0294126821447,-28.51783708516413L106.9267179621356,-177.83512553396494L159.34000244821686,-24.782099128867646z" style="fill:rgb(239,149,184)"/><path d="M163.54859311611213,-35.668605913998654L113.72568564607121,-188.7062489801694L111.20189191992341,-183.58565364411314z" style="fill:rgb(242,155,174)"/><path d="M83.54548269918585,-157.34218201877076L111.3233724507828,-200.00498825216889L107.46217801480044,-202.37751428222347z" style="fill:rgb(82,237,172)"/><path d="M-100.21564011414465,81.68938918615198L-168.13210998578842,-65.20606532486109L-104.30063766875887,80.3190441116082z" style="fill:rgb(32,65,185)"/><path d="M-60.28864228991108,84.09162650884385L-67.0782744534437,84.56575061006302L-6.184849948391263,220.0512354602254z" style="fill:rgb(69,65,222)"/><path d="M83.54548269918585,-157.34218201877076L-189.20059687794736,-80.93265134624517L-189.73406432647974,-76.75591171477456z" style="fill:rgb(82,237,172)"/><path d="M-111.63496022862769,77.20289994828305L-175.79367624465036,-66.07376644627622L-181.77393507047492,-67.71736192967951z" style="fill:rgb(26,66,175)"/><path d="M-23.15435709410076,78.73053222411478L21.613099166500774,219.6148224960799L36.71024666196186,217.75120427790995z" style="fill:rgb(91,68,234)"/><path d="M139.17462912102604,-0.054912637623404446L134.20810904862248,4.292287161558744L179.72099359446,149.49663278603586z" style="fill:rgb(213,124,221)"/><path d="M159.34000244821686,-24.782099128867646L106.9267179621356,-177.83512553396494L156.8329433088905,-20.860854868569824z" style="fill:rgb(234,143,195)"/><path d="M-53.43417864349594,83.6131266820806L-60.28864228991108,84.09162650884385L-6.184849948391263,220.0512354602254z" style="fill:rgb(69,65,222)"/><path d="M-95.42933802741913,82.62187889480933L-168.13210998578842,-65.20606532486109L-100.21564011414465,81.68938918615198z" style="fill:rgb(40,64,196)"/><path d="M104.86630940777427,26.200264539826378L144.52040733044635,176.90248081869998L157.5044786763519,168.10285401782875z" style="fill:rgb(184,105,239)"/><path d="M134.20810904862248,4.292287161558744L129.19372759690492,8.681543654439432L179.72099359446,149.49663278603586z" style="fill:rgb(213,124,221)"/><path d="M-6.916686677224548,74.82667351161308L36.71024666196186,217.75120427790995L52.341306648822496,214.79100868177036z" style="fill:rgb(102,71,239)"/><path d="M83.54548269918585,-157.34218201877076L113.71415074180112,-196.93281071936738L111.3233724507828,-200.00498825216889z" style="fill:rgb(82,237,172)"/><path d="M-46.11291137312205,82.6439522980449L-53.43417864349594,83.6131266820806L7.253724926989695,220.37643793929598z" style="fill:rgb(79,66,228)"/><path d="M90.80768148689768,34.72657269736772L130.50450292800159,185.18575690758644L144.52040733044635,176.90248081869998z" style="fill:rgb(174,99,242)"/><path d="M83.54548269918585,-157.34218201877076L-189.73406432647974,-76.75591171477456L-188.71108031964096,-73.11862765831741z" style="fill:rgb(82,237,172)"/><path d="M129.19372759690492,8.681543654439432L123.47840301337813,13.05996766300407L169.28578163083128,158.92166929588066z" style="fill:rgb(204,117,228)"/><path d="M9.750860979293119,69.99751827227826L52.341306648822496,214.79100868177036L68.28518538339189,210.7602667849498z" style="fill:rgb(114,75,243)"/><path d="M156.8329433088905,-20.860854868569824L100.88102107675304,-171.50171398080676L154.2944678258322,-16.89047089908955z" style="fill:rgb(234,143,195)"/><path d="M-38.730647992355486,81.66686513785369L-46.11291137312205,82.6439522980449L7.253724926989695,220.37643793929598z" style="fill:rgb(79,66,228)"/><path d="M-90.58316546660306,83.56598155009357L-158.816675996517,-65.15834324179055L-95.42933802741913,82.62187889480933z" style="fill:rgb(40,64,196)"/><path d="M75.72824722043525,42.92383282685788L115.65206225157746,192.823883996245L130.50450292800159,185.18575690758644z" style="fill:rgb(162,93,245)"/><path d="M161.0294126821447,-28.51783708516413L111.20189191992341,-183.58565364411314L106.9267179621356,-177.83512553396494z" style="fill:rgb(239,149,184)"/><path d="M123.47840301337813,13.05996766300407L117.71500397479889,17.47517998812173L169.28578163083128,158.92166929588066z" style="fill:rgb(204,117,228)"/><path d="M26.602549520454655,64.30475303811062L68.28518538339189,210.7602667849498L84.30980426984537,205.70695554621835z" style="fill:rgb(126,79,245)"/><path d="M-104.30063766875887,80.3190441116082L-168.13210998578842,-65.20606532486109L-175.79367624465036,-66.07376644627622z" style="fill:rgb(32,65,185)"/><path d="M59.84235207055431,50.66454949428678L100.17762362267786,199.69901733242054L115.65206225157746,192.823883996245z" style="fill:rgb(151,88,246)"/><path d="M43.38450306216691,57.82817131077918L84.30980426984537,205.70695554621835L100.17762362267786,199.69901733242054z" style="fill:rgb(139,83,246)"/><path d="M154.2944678258322,-16.89047089908955L100.88102107675304,-171.50171398080676L150.94802809596104,-12.777124963155728z" style="fill:rgb(228,137,204)"/><path d="M-85.07575251862043,84.05004387514911L-158.816675996517,-65.15834324179055L-90.58316546660306,83.56598155009357z" style="fill:rgb(49,63,205)"/><path d="M-30.969468666832412,80.20380540104243L-38.730647992355486,81.66686513785369L21.613099166500774,219.6148224960799z" style="fill:rgb(91,68,234)"/><path d="M83.54548269918585,-157.34218201877076L114.54174206478416,-193.16266165985127L113.71415074180112,-196.93281071936738z" style="fill:rgb(82,237,172)"/><path d="M117.71500397479889,17.47517998812173L111.3133514824907,21.82239573738157L157.5044786763519,168.10285401782875z" style="fill:rgb(195,111,234)"/><path d="M83.54548269918585,-157.34218201877076L-188.71108031964096,-73.11862765831741L-186.07201486643027,-70.08506552884513z" style="fill:rgb(82,237,172)"/><path d="M-23.15435709410076,78.73053222411478L-30.969468666832412,80.20380540104243L21.613099166500774,219.6148224960799z" style="fill:rgb(91,68,234)"/><path d="M111.3133514824907,21.82239573738157L104.86630940777427,26.200264539826378L157.5044786763519,168.10285401782875z" style="fill:rgb(195,111,234)"/><path d="M150.94802809596104,-12.777124963155728L93.07368017175999,-164.64587407758876L147.56236544759454,-8.615368432059611z" style="fill:rgb(228,137,204)"/><path d="M-15.057923782417848,76.78396819699675L-23.15435709410076,78.73053222411478L36.71024666196186,217.75120427790995z" style="fill:rgb(102,71,239)"/><path d="M-79.50434619432414,84.53976058163131L-147.9053480159292,-65.96394676364922L-85.07575251862043,84.05004387514911z" style="fill:rgb(49,63,205)"/><path d="M104.86630940777427,26.200264539826378L97.85676631107319,30.451428712601732L144.52040733044635,176.90248081869998z" style="fill:rgb(184,105,239)"/><path d="M-6.916686677224548,74.82667351161308L-15.057923782417848,76.78396819699675L36.71024666196186,217.75120427790995z" style="fill:rgb(102,71,239)"/><path d="M156.8329433088905,-20.860854868569824L106.9267179621356,-177.83512553396494L100.88102107675304,-171.50171398080676z" style="fill:rgb(234,143,195)"/><path d="M97.85676631107319,30.451428712601732L90.80768148689768,34.72657269736772L144.52040733044635,176.90248081869998z" style="fill:rgb(184,105,239)"/><path d="M147.56236544759454,-8.615368432059611L93.07368017175999,-164.64587407758876L143.39087480695966,-4.358073343443609z" style="fill:rgb(221,130,213)"/><path d="M-95.42933802741913,82.62187889480933L-158.816675996517,-65.15834324179055L-168.13210998578842,-65.20606532486109z" style="fill:rgb(40,64,196)"/><path d="M83.54548269918585,-157.34218201877076L113.72568564607121,-188.7062489801694L114.54174206478416,-193.16266165985127z" style="fill:rgb(82,237,172)"/><path d="M-73.32441835641174,84.55269379277507L-147.9053480159292,-65.96394676364922L-79.50434619432414,84.53976058163131z" style="fill:rgb(58,64,214)"/><path d="M1.4004740167706795,72.41688100925005L-6.916686677224548,74.82667351161308L52.341306648822496,214.79100868177036z" style="fill:rgb(114,75,243)"/><path d="M83.54548269918585,-157.34218201877076L-186.07201486643027,-70.08506552884513L-181.77393507047492,-67.71736192967951z" style="fill:rgb(82,237,172)"/><path d="M90.80768148689768,34.72657269736772L83.28342182409156,38.81689079386523L130.50450292800159,185.18575690758644z" style="fill:rgb(174,99,242)"/><path d="M9.750860979293119,69.99751827227826L1.4004740167706795,72.41688100925005L52.341306648822496,214.79100868177036z" style="fill:rgb(114,75,243)"/><path d="M83.28342182409156,38.81689079386523L75.72824722043525,42.92383282685788L130.50450292800159,185.18575690758644z" style="fill:rgb(174,99,242)"/><path d="M18.166787820484334,67.15442904281313L9.750860979293119,69.99751827227826L68.28518538339189,210.7602667849498z" style="fill:rgb(126,79,245)"/><path d="M75.72824722043525,42.92383282685788L67.7953653533935,46.78941683122277L115.65206225157746,192.823883996245z" style="fill:rgb(162,93,245)"/><path d="M26.602549520454655,64.30475303811062L18.166787820484334,67.15442904281313L68.28518538339189,210.7602667849498z" style="fill:rgb(126,79,245)"/><path d="M67.7953653533935,46.78941683122277L59.84235207055431,50.66454949428678L115.65206225157746,192.823883996245z" style="fill:rgb(162,93,245)"/><path d="M34.990383533507675,61.067587601728455L26.602549520454655,64.30475303811062L84.30980426984537,205.70695554621835z" style="fill:rgb(139,83,246)"/><path d="M143.39087480695966,-4.358073343443609L83.54548269918585,-157.34218201877076L139.17462912102604,-0.054912637623404446z" style="fill:rgb(221,130,213)"/><path d="M59.84235207055431,50.66454949428678L51.61708216898757,54.24476811469131L100.17762362267786,199.69901733242054z" style="fill:rgb(151,88,246)"/><path d="M43.38450306216691,57.82817131077918L34.990383533507675,61.067587601728455L84.30980426984537,205.70695554621835z" style="fill:rgb(139,83,246)"/><path d="M51.61708216898757,54.24476811469131L43.38450306216691,57.82817131077918L100.17762362267786,199.69901733242054z" style="fill:rgb(151,88,246)"/><path d="M-67.0782744534437,84.56575061006302L-135.48852806353295,-67.64374005277763L-73.32441835641174,84.55269379277507z" style="fill:rgb(58,64,214)"/><path d="M83.54548269918585,-157.34218201877076L111.20189191992341,-183.58565364411314L113.72568564607121,-188.7062489801694z" style="fill:rgb(82,237,172)"/><path d="M139.17462912102604,-0.054912637623404446L83.54548269918585,-157.34218201877076L134.20810904862248,4.292287161558744z" style="fill:rgb(213,124,221)"/><path d="M83.54548269918585,-157.34218201877076L-181.77393507047492,-67.71736192967951L-175.79367624465036,-66.07376644627622z" style="fill:rgb(82,237,172)"/><path d="M-60.28864228991108,84.09162650884385L-135.48852806353295,-67.64374005277763L-67.0782744534437,84.56575061006302z" style="fill:rgb(69,65,222)"/><path d="M150.94802809596104,-12.777124963155728L100.88102107675304,-171.50171398080676L93.07368017175999,-164.64587407758876z" style="fill:rgb(228,137,204)"/><path d="M-85.07575251862043,84.05004387514911L-147.9053480159292,-65.96394676364922L-158.816675996517,-65.15834324179055z" style="fill:rgb(49,63,205)"/><path d="M134.20810904862248,4.292287161558744L72.37129970674279,-149.6779162194744L129.19372759690492,8.681543654439432z" style="fill:rgb(213,124,221)"/><path d="M-53.43417864349594,83.6131266820806L-121.68934340105538,-70.20403488689895L-60.28864228991108,84.09162650884385z" style="fill:rgb(69,65,222)"/><path d="M83.54548269918585,-157.34218201877076L106.9267179621356,-177.83512553396494L111.20189191992341,-183.58565364411314z" style="fill:rgb(82,237,172)"/><path d="M129.19372759690492,8.681543654439432L72.37129970674279,-149.6779162194744L123.47840301337813,13.05996766300407z" style="fill:rgb(204,117,228)"/><path d="M83.54548269918585,-157.34218201877076L-175.79367624465036,-66.07376644627622L-168.13210998578842,-65.20606532486109z" style="fill:rgb(82,237,172)"/><path d="M-46.11291137312205,82.6439522980449L-121.68934340105538,-70.20403488689895L-53.43417864349594,83.6131266820806z" style="fill:rgb(79,66,228)"/><path d="M143.39087480695966,-4.358073343443609L93.07368017175999,-164.64587407758876L83.54548269918585,-157.34218201877076z" style="fill:rgb(221,130,213)"/><path d="M-73.32441835641174,84.55269379277507L-135.48852806353295,-67.64374005277763L-147.9053480159292,-65.96394676364922z" style="fill:rgb(58,64,214)"/><path d="M123.47840301337813,13.05996766300407L59.66104031053406,-141.75244958972888L117.71500397479889,17.47517998812173z" style="fill:rgb(204,117,228)"/><path d="M-38.730647992355486,81.66686513785369L-106.66537971169791,-73.63458218182065L-46.11291137312205,82.6439522980449z" style="fill:rgb(79,66,228)"/><path d="M83.54548269918585,-157.34218201877076L100.88102107675304,-171.50171398080676L106.9267179621356,-177.83512553396494z" style="fill:rgb(82,237,172)"/><path d="M117.71500397479889,17.47517998812173L59.66104031053406,-141.75244958972888L111.3133514824907,21.82239573738157z" style="fill:rgb(195,111,234)"/><path d="M83.54548269918585,-157.34218201877076L-168.13210998578842,-65.20606532486109L-158.816675996517,-65.15834324179055z" style="fill:rgb(82,237,172)"/><path d="M-30.969468666832412,80.20380540104243L-106.66537971169791,-73.63458218182065L-38.730647992355486,81.66686513785369z" style="fill:rgb(91,68,234)"/><path d="M111.3133514824907,21.82239573738157L45.560883973817916,-133.67568252389967L104.86630940777427,26.200264539826378z" style="fill:rgb(195,111,234)"/><path d="M134.20810904862248,4.292287161558744L83.54548269918585,-157.34218201877076L72.37129970674279,-149.6779162194744z" style="fill:rgb(213,124,221)"/><path d="M-23.15435709410076,78.73053222411478L-90.60568865876682,-77.90820738445052L-30.969468666832412,80.20380540104243z" style="fill:rgb(91,68,234)"/><path d="M-60.28864228991108,84.09162650884385L-121.68934340105538,-70.20403488689895L-135.48852806353295,-67.64374005277763z" style="fill:rgb(69,65,222)"/><path d="M104.86630940777427,26.200264539826378L45.560883973817916,-133.67568252389967L97.85676631107319,30.451428712601732z" style="fill:rgb(184,105,239)"/><path d="M-15.057923782417848,76.78396819699675L-90.60568865876682,-77.90820738445052L-23.15435709410076,78.73053222411478z" style="fill:rgb(102,71,239)"/><path d="M83.54548269918585,-157.34218201877076L93.07368017175999,-164.64587407758876L100.88102107675304,-171.50171398080676zM83.54548269918585,-157.34218201877076L-158.816675996517,-65.15834324179055L-147.9053480159292,-65.96394676364922z" style="fill:rgb(82,237,172)"/><path d="M97.85676631107319,30.451428712601732L30.25079226243542,-125.56515732110887L90.80768148689768,34.72657269736772z" style="fill:rgb(184,105,239)"/><path d="M-6.916686677224548,74.82667351161308L-73.72874339276812,-82.97930672479963L-15.057923782417848,76.78396819699675z" style="fill:rgb(102,71,239)"/><path d="M90.80768148689768,34.72657269736772L30.25079226243542,-125.56515732110887L83.28342182409156,38.81689079386523z" style="fill:rgb(174,99,242)"/><path d="M1.4004740167706795,72.41688100925005L-73.72874339276812,-82.97930672479963L-6.916686677224548,74.82667351161308z" style="fill:rgb(114,75,243)"/><path d="M123.47840301337813,13.05996766300407L72.37129970674279,-149.6779162194744L59.66104031053406,-141.75244958972888z" style="fill:rgb(204,117,228)"/><path d="M83.28342182409156,38.81689079386523L13.941796148619776,-117.54391497503482L75.72824722043525,42.92383282685788z" style="fill:rgb(174,99,242)"/><path d="M-46.11291137312205,82.6439522980449L-106.66537971169791,-73.63458218182065L-121.68934340105538,-70.20403488689895z" style="fill:rgb(79,66,228)"/><path d="M9.750860979293119,69.99751827227826L-56.276638668949914,-88.78474616303262L1.4004740167706795,72.41688100925005z" style="fill:rgb(114,75,243)"/><path d="M75.72824722043525,42.92383282685788L13.941796148619776,-117.54391497503482L67.7953653533935,46.78941683122277z" style="fill:rgb(162,93,245)"/><path d="M18.166787820484334,67.15442904281313L-56.276638668949914,-88.78474616303262L9.750860979293119,69.99751827227826z" style="fill:rgb(126,79,245)"/><path d="M83.54548269918585,-157.34218201877076L-147.9053480159292,-65.96394676364922L-135.48852806353295,-67.64374005277763z" style="fill:rgb(82,237,172)"/><path d="M67.7953653533935,46.78941683122277L-3.1285610295448314,-109.73621687939573L59.84235207055431,50.66454949428678z" style="fill:rgb(162,93,245)"/><path d="M26.602549520454655,64.30475303811062L-38.510690006958455,-95.24480397575543L18.166787820484334,67.15442904281313z" style="fill:rgb(126,79,245)"/><path d="M59.84235207055431,50.66454949428678L-3.1285610295448314,-109.73621687939573L51.61708216898757,54.24476811469131z" style="fill:rgb(151,88,246)"/><path d="M34.990383533507675,61.067587601728455L-38.510690006958455,-95.24480397575543L26.602549520454655,64.30475303811062z" style="fill:rgb(139,83,246)"/><path d="M51.61708216898757,54.24476811469131L-20.70291747718518,-102.26432437778458L43.38450306216691,57.82817131077918z" style="fill:rgb(151,88,246)"/><path d="M43.38450306216691,57.82817131077918L-20.70291747718518,-102.26432437778458L34.990383533507675,61.067587601728455z" style="fill:rgb(139,83,246)"/><path d="M111.3133514824907,21.82239573738157L59.66104031053406,-141.75244958972888L45.560883973817916,-133.67568252389967z" style="fill:rgb(195,111,234)"/><path d="M-30.969468666832412,80.20380540104243L-90.60568865876682,-77.90820738445052L-106.66537971169791,-73.63458218182065z" style="fill:rgb(91,68,234)"/><path d="M83.54548269918585,-157.34218201877076L-135.48852806353295,-67.64374005277763L-121.68934340105538,-70.20403488689895z" style="fill:rgb(82,237,172)"/><path d="M97.85676631107319,30.451428712601732L45.560883973817916,-133.67568252389967L30.25079226243542,-125.56515732110887z" style="fill:rgb(184,105,239)"/><path d="M83.54548269918585,-157.34218201877076L59.66104031053406,-141.75244958972888L72.37129970674279,-149.6779162194744z" style="fill:rgb(82,237,172)"/><path d="M-15.057923782417848,76.78396819699675L-73.72874339276812,-82.97930672479963L-90.60568865876682,-77.90820738445052z" style="fill:rgb(102,71,239)"/><path d="M83.54548269918585,-157.34218201877076L-121.68934340105538,-70.20403488689895L-106.66537971169791,-73.63458218182065z" style="fill:rgb(82,237,172)"/><path d="M83.28342182409156,38.81689079386523L30.25079226243542,-125.56515732110887L13.941796148619776,-117.54391497503482z" style="fill:rgb(174,99,242)"/><path d="M1.4004740167706795,72.41688100925005L-56.276638668949914,-88.78474616303262L-73.72874339276812,-82.97930672479963z" style="fill:rgb(114,75,243)"/><path d="M83.54548269918585,-157.34218201877076L45.560883973817916,-133.67568252389967L59.66104031053406,-141.75244958972888zM83.54548269918585,-157.34218201877076L-106.66537971169791,-73.63458218182065L-90.60568865876682,-77.90820738445052z" style="fill:rgb(82,237,172)"/><path d="M67.7953653533935,46.78941683122277L13.941796148619776,-117.54391497503482L-3.1285610295448314,-109.73621687939573z" style="fill:rgb(162,93,245)"/><path d="M18.166787820484334,67.15442904281313L-38.510690006958455,-95.24480397575543L-56.276638668949914,-88.78474616303262z" style="fill:rgb(126,79,245)"/><path d="M51.61708216898757,54.24476811469131L-3.1285610295448314,-109.73621687939573L-20.70291747718518,-102.26432437778458z" style="fill:rgb(151,88,246)"/><path d="M83.54548269918585,-157.34218201877076L30.25079226243542,-125.56515732110887L45.560883973817916,-133.67568252389967z" style="fill:rgb(82,237,172)"/><path d="M34.990383533507675,61.067587601728455L-20.70291747718518,-102.26432437778458L-38.510690006958455,-95.24480397575543z" style="fill:rgb(139,83,246)"/><path d="M83.54548269918585,-157.34218201877076L-90.60568865876682,-77.90820738445052L-73.72874339276812,-82.97930672479963zM83.54548269918585,-157.34218201877076L13.941796148619776,-117.54391497503482L30.25079226243542,-125.56515732110887zM83.54548269918585,-157.34218201877076L-73.72874339276812,-82.97930672479963L-56.276638668949914,-88.78474616303262zM83.54548269918585,-157.34218201877076L-3.1285610295448314,-109.73621687939573L13.941796148619776,-117.54391497503482zM83.54548269918585,-157.34218201877076L-56.276638668949914,-88.78474616303262L-38.510690006958455,-95.24480397575543zM83.54548269918585,-157.34218201877076L-20.70291747718518,-102.26432437778458L-3.1285610295448314,-109.73621687939573zM83.54548269918585,-157.34218201877076L-38.510690006958455,-95.24480397575543L-20.70291747718518,-102.26432437778458z" style="fill:rgb(82,237,172)"/></svg>