<svg viewBox="-250 -250 500 500" width="500" height="500" xmlns="http://www.w3.org/2000/svg"><path d="M-52.1429395853501,127.72366968725072L22.42952731353504,137.35252377559496L-91.86306681965193,39.7090374779518zM-91.86306681965193,39.7090374779518L-35.55918380930807,0L-109.78327529693577,0zM-91.86306681965193,39.7090374779518L22.42952731353504,137.35252377559496L-35.55918380930807,0z" style="fill:rgb(49,63,205)"/><path d="M166.15520321208825,-57.8512675861287L218.32395569526835,98.70555630103095L215.93371431222675,90.52064757518521z" style="fill:rgb(246,166,151)"/><path d="M167.890229127798,-51.553819410632684L219.0534385956655,107.60658247188529L218.32395569526835,98.70555630103095z" style="fill:rgb(245,161,162)"/><path d="M166.15520321208825,-57.8512675861287L167.0157792053785,-54.72769304356507L218.32395569526835,98.70555630103095z" style="fill:rgb(246,166,151)"/><path d="M74.53699590980581,-182.5777127405901L-62.83337177849083,-194.48021833076783L-77.71256076030866,-188.54259052054843zM74.53699590980581,-182.5777127405901L-77.71256076030866,-188.54259052054843L-92.4832876394613,-182.35021259305964zM74.53699590980581,-182.5777127405901L-47.933643434718604,-200.12749581723483L-62.83337177849083,-194.48021833076783zM74.53699590980581,-182.5777127405901L-92.4832876394613,-182.35021259305964L-107.05801554218277,-175.9389606073008zM74.53699590980581,-182.5777127405901L-33.101983169773646,-205.44911364235867L-47.933643434718604,-200.12749581723483zM74.53699590980581,-182.5777127405901L-107.05801554218277,-175.9389606073008L-121.3486272545538,-169.34591862479633z" style="fill:rgb(82,237,172)"/><path d="M167.0157792053785,-54.72769304356507L167.890229127798,-51.553819410632684L218.32395569526835,98.70555630103095z" style="fill:rgb(246,166,151)"/><path d="M74.53699590980581,-182.5777127405901L-18.428686162627724,-210.4090966686221L-33.101983169773646,-205.44911364235867zM74.53699590980581,-182.5777127405901L-121.3486272545538,-169.34591862479633L-135.2652749132521,-162.6089124496426z" style="fill:rgb(82,237,172)"/><path d="M167.86133060143862,-44.494049634942115L218.03815372812747,117.15026921620506L219.0534385956655,107.60658247188529z" style="fill:rgb(242,155,174)"/><path d="M74.53699590980581,-182.5777127405901L-4.006977732804123,-214.9714099604846L-18.428686162627724,-210.4090966686221zM74.53699590980581,-182.5777127405901L-135.2652749132521,-162.6089124496426L-148.71612241060595,-155.76732025430164zM74.53699590980581,-182.5777127405901L10.067075590892182,-219.09975127508235L-4.006977732804123,-214.9714099604846zM74.53699590980581,-182.5777127405901L-148.71612241060595,-155.76732025430164L-161.60657073759606,-148.86259634182073z" style="fill:rgb(82,237,172)"/><path d="M-147.08941102222434,88.15884083333773L-76.92359923967429,233.6533426132661L-73.04185146544333,236.75696954286585z" style="fill:rgb(26,66,175)"/><path d="M167.890229127798,-51.553819410632684L167.87591713674436,-48.05194159664463L219.0534385956655,107.60658247188529z" style="fill:rgb(245,161,162)"/><path d="M74.53699590980581,-182.5777127405901L23.693180401960284,-222.75670328295877L10.067075590892182,-219.09975127508235zM74.53699590980581,-182.5777127405901L-161.60657073759606,-148.86259634182073L-173.83843212531903,-141.9384400942591z" style="fill:rgb(82,237,172)"/><path d="M167.87591713674436,-48.05194159664463L167.86133060143862,-44.494049634942115L219.0534385956655,107.60658247188529z" style="fill:rgb(245,161,162)"/><path d="M165.98318346124955,-36.71990510574134L215.21289003298673,127.24698565843723L218.03815372812747,117.15026921620506z" style="fill:rgb(239,149,184)"/><path d="M74.53699590980581,-182.5777127405901L36.76641293390958,-225.90451033332167L23.693180401960284,-222.75670328295877zM74.53699590980581,-182.5777127405901L-173.83843212531903,-141.9384400942591L-185.31042926087179,-135.0417837931861z" style="fill:rgb(82,237,172)"/><path d="M-134.8340571680689,93.5441953157641L-73.04185146544333,236.75696954286585L-63.81579214008255,241.91216890101546z" style="fill:rgb(32,65,185)"/><path d="M167.86133060143862,-44.494049634942115L166.92952574232376,-40.63697305813254L218.03815372812747,117.15026921620506z" style="fill:rgb(242,155,174)"/><path d="M74.53699590980581,-182.5777127405901L49.17702174598458,-228.505043667014L36.76641293390958,-225.90451033332167z" style="fill:rgb(82,237,172)"/><path d="M-147.08941102222434,88.15884083333773L-145.58736401413404,91.37888513627033L-76.92359923967429,233.6533426132661z" style="fill:rgb(25,66,174)"/><path d="M74.53699590980581,-182.5777127405901L-185.31042926087179,-135.0417837931861L-195.91699369323297,-128.22226570901398z" style="fill:rgb(82,237,172)"/><path d="M166.15520321208825,-57.8512675861287L109.98699332129527,-225.26831222762715L167.0157792053785,-54.72769304356507z" style="fill:rgb(246,166,151)"/><path d="M166.92952574232376,-40.63697305813254L165.98318346124955,-36.71990510574134L218.03815372812747,117.15026921620506z" style="fill:rgb(242,155,174)"/><path d="M-157.3212621115652,78.28106724360427L-236.1145588738755,-83.61635389451692L-158.96781069256897,75.4750258447927z" style="fill:rgb(15,71,152)"/><path d="M162.1918123137063,-28.295098634692415L210.5363770506597,137.79024866966034L215.21289003298673,127.24698565843723z" style="fill:rgb(234,143,195)"/><path d="M-147.08941102222434,88.15884083333773L-73.04185146544333,236.75696954286585L-143.59336275789556,90.25869227536673z" style="fill:rgb(26,66,175)"/><path d="M74.53699590980581,-182.5777127405901L60.81059298828004,-230.52009461325602L49.17702174598458,-228.505043667014zM74.53699590980581,-182.5777127405901L-195.91699369323297,-128.22226570901398L-205.5491778950156,-121.5332096869366z" style="fill:rgb(82,237,172)"/><path d="M-139.24634830078372,91.88909002019075L-143.59336275789556,90.25869227536673L-73.04185146544333,236.75696954286585z" style="fill:rgb(32,65,185)"/><path d="M-124.28585377774952,95.86505701401492L-63.81579214008255,241.91216890101546L-52.95981244065833,246.08208925010035z" style="fill:rgb(40,64,196)"/><path d="M165.98318346124955,-36.71990510574134L164.10169025748795,-32.5390185497927L215.21289003298673,127.24698565843723z" style="fill:rgb(239,149,184)"/><path d="M167.0157792053785,-54.72769304356507L110.87203257854395,-221.43142881374703L167.890229127798,-51.553819410632684z" style="fill:rgb(246,166,151)"/><path d="M74.53699590980581,-182.5777127405901L71.54699551947681,-231.911561649042L60.81059298828004,-230.52009461325602zM74.53699590980581,-182.5777127405901L-205.5491778950156,-121.5332096869366L-214.09458223902885,-115.0314177504322z" style="fill:rgb(82,237,172)"/><path d="M-134.8340571680689,93.5441953157641L-139.24634830078372,91.88909002019075L-73.04185146544333,236.75696954286585z" style="fill:rgb(32,65,185)"/><path d="M-155.6481853658441,81.13225834810264L-233.90069904870398,-80.31723171410249L-157.3212621115652,78.28106724360427z" style="fill:rgb(15,71,152)"/><path d="M156.44926199508848,-19.299451195754752L203.99535493672767,148.6581015761349L210.5363770506597,137.79024866966034z" style="fill:rgb(228,137,204)"/><path d="M164.10169025748795,-32.5390185497927L162.1918123137063,-28.295098634692415L215.21289003298673,127.24698565843723z" style="fill:rgb(239,149,184)"/><path d="M167.890229127798,-51.553819410632684L110.87203257854395,-221.43142881374703L167.87591713674436,-48.05194159664463z" style="fill:rgb(245,161,162)"/><path d="M-147.16252031013158,88.11484232906044L-145.58736401413404,91.37888513627033L-147.08941102222434,88.15884083333773z" style="fill:rgb(25,66,174)"/><path d="M-153.11021716097005,83.59221718253045L-233.90069904870398,-80.31723171410249L-155.6481853658441,81.13225834810264z" style="fill:rgb(20,68,163)"/><path d="M74.53699590980581,-182.5777127405901L81.26217131992503,-232.64239399835418L71.54699551947681,-231.911561649042z" style="fill:rgb(82,237,172)"/><path d="M-112.0139476232968,97.14793251802146L-52.95981244065833,246.08208925010035L-40.553097133819385,249.17109991075063z" style="fill:rgb(49,63,205)"/><path d="M74.53699590980581,-182.5777127405901L-214.09458223902885,-115.0314177504322L-221.43818680826493,-108.77805280742942z" style="fill:rgb(82,237,172)"/><path d="M-129.59749533343117,94.69639977158324L-134.8340571680689,93.5441953157641L-63.81579214008255,241.91216890101546z" style="fill:rgb(40,64,196)"/><path d="M162.1918123137063,-28.295098634692415L159.34100192607858,-23.82925265902221L210.5363770506597,137.79024866966034z" style="fill:rgb(234,143,195)"/><path d="M167.0157792053785,-54.72769304356507L109.98699332129527,-225.26831222762715L110.87203257854395,-221.43142881374703z" style="fill:rgb(246,166,151)"/><path d="M-124.28585377774952,95.86505701401492L-129.59749533343117,94.69639977158324L-63.81579214008255,241.91216890101546z" style="fill:rgb(40,64,196)"/><path d="M167.87591713674436,-48.05194159664463L109.87186862132013,-216.79068856875594L167.86133060143862,-44.494049634942115z" style="fill:rgb(245,161,162)"/><path d="M148.74820822803446,-9.830108552712431L195.60826397244216,159.71342768312226L203.99535493672767,148.6581015761349z" style="fill:rgb(221,130,213)"/><path d="M-157.3212621115652,78.28106724360427L-233.90069904870398,-80.31723171410249L-236.1145588738755,-83.61635389451692z" style="fill:rgb(15,71,152)"/><path d="M-150.53169731872592,86.09134467959105L-229.77263736816195,-77.76958389204295L-153.11021716097005,83.59221718253045z" style="fill:rgb(20,68,163)"/><path d="M74.53699590980581,-182.5777127405901L89.82776423802714,-232.67737832057608L81.26217131992503,-232.64239399835418z" style="fill:rgb(82,237,172)"/><path d="M159.34100192607858,-23.82925265902221L156.44926199508848,-19.299451195754752L210.5363770506597,137.79024866966034z" style="fill:rgb(234,143,195)"/><path d="M74.53699590980581,-182.5777127405901L-221.43818680826493,-108.77805280742942L-227.4637173455845,-102.83769679509784z" style="fill:rgb(82,237,172)"/><path d="M167.86133060143862,-44.494049634942115L109.87186862132013,-216.79068856875594L166.92952574232376,-40.63697305813254z" style="fill:rgb(242,155,174)"/><path d="M-98.12072483274919,97.33278181580874L-40.553097133819385,249.17109991075063L-26.707413123625695,251.0956823737631z" style="fill:rgb(58,64,214)"/><path d="M-147.08941102222434,88.15884083333773L-229.77263736816195,-77.76958389204295L-150.53169731872592,86.09134467959105z" style="fill:rgb(26,66,175)"/><path d="M-118.1905760394655,96.50222243448489L-124.28585377774952,95.86505701401492L-52.95981244065833,246.08208925010035z" style="fill:rgb(49,63,205)"/><path d="M156.44926199508848,-19.299451195754752L152.6244751927807,-14.596542437673444L203.99535493672767,148.6581015761349z" style="fill:rgb(228,137,204)"/><path d="M139.1163923135686,0L185.4293124400802,170.80672377195214L195.60826397244216,159.71342768312226z" style="fill:rgb(213,124,221)"/><path d="M74.53699590980581,-182.5777127405901L97.11321718527302,-231.98351979482192L89.82776423802714,-232.67737832057608z" style="fill:rgb(82,237,172)"/><path d="M-112.0139476232968,97.14793251802146L-118.1905760394655,96.50222243448489L-52.95981244065833,246.08208925010035z" style="fill:rgb(49,63,205)"/><path d="M74.53699590980581,-182.5777127405901L-227.4637173455845,-102.83769679509784L-232.0548059273413,-97.27870134769161z" style="fill:rgb(82,237,172)"/><path d="M152.6244751927807,-14.596542437673444L148.74820822803446,-9.830108552712431L203.99535493672767,148.6581015761349z" style="fill:rgb(228,137,204)"/><path d="M167.87591713674436,-48.05194159664463L110.87203257854395,-221.43142881374703L109.87186862132013,-216.79068856875594z" style="fill:rgb(245,161,162)"/><path d="M166.92952574232376,-40.63697305813254L106.90117524211703,-211.36131819349592L165.98318346124955,-36.71990510574134z" style="fill:rgb(242,155,174)"/><path d="M-82.7466909758107,96.37626811668763L-26.707413123625695,251.0956823737631L-11.569009361541005,251.78782564282832z" style="fill:rgb(69,65,222)"/><path d="M-153.11021716097005,83.59221718253045L-229.77263736816195,-77.76958389204295L-233.90069904870398,-80.31723171410249z" style="fill:rgb(20,68,163)"/><path d="M-143.59336275789556,90.25869227536673L-223.68178088577667,-76.04342585214249L-147.08941102222434,88.15884083333773z" style="fill:rgb(26,66,175)"/><path d="M165.98318346124955,-36.71990510574134L106.90117524211703,-211.36131819349592L164.10169025748795,-32.5390185497927z" style="fill:rgb(239,149,184)"/><path d="M-105.10987094696728,97.23980227142684L-112.0139476232968,97.14793251802146L-40.553097133819385,249.17109991075063z" style="fill:rgb(58,64,214)"/><path d="M127.62027452807764,10.06279429701343L173.5493046287382,181.7779382344096L185.4293124400802,170.80672377195214z" style="fill:rgb(204,117,228)"/><path d="M74.53699590980581,-182.5777127405901L102.98712126053096,-230.53182363147545L97.11321718527302,-231.98351979482192z" style="fill:rgb(82,237,172)"/><path d="M-139.24634830078372,91.88909002019075L-223.68178088577667,-76.04342585214249L-143.59336275789556,90.25869227536673z" style="fill:rgb(32,65,185)"/><path d="M74.53699590980581,-182.5777127405901L-232.0548059273413,-97.27870134769161L-235.09793276574123,-92.1725856242146z" style="fill:rgb(82,237,172)"/><path d="M148.74820822803446,-9.830108552712431L143.9618399975124,-4.945316041047774L195.60826397244216,159.71342768312226z" style="fill:rgb(221,130,213)"/><path d="M-98.12072483274919,97.33278181580874L-105.10987094696728,97.23980227142684L-40.553097133819385,249.17109991075063z" style="fill:rgb(58,64,214)"/><path d="M-66.0701647721839,94.25418936861495L-11.569009361541005,251.78782564282832L4.682249415029563,251.1992393407102z" style="fill:rgb(79,66,228)"/><path d="M143.9618399975124,-4.945316041047774L139.1163923135686,0L195.60826397244216,159.71342768312226z" style="fill:rgb(221,130,213)"/><path d="M114.36742145904046,20.21727100426031L160.09777481759565,192.46125855577213L173.5493046287382,181.7779382344096z" style="fill:rgb(195,111,234)"/><path d="M164.10169025748795,-32.5390185497927L101.89797292568205,-205.17217752231483L162.1918123137063,-28.295098634692415z" style="fill:rgb(239,149,184)"/><path d="M166.92952574232376,-40.63697305813254L109.87186862132013,-216.79068856875594L106.90117524211703,-211.36131819349592z" style="fill:rgb(242,155,174)"/><path d="M-134.8340571680689,93.5441953157641L-215.6069180722892,-75.20189962600155L-139.24634830078372,91.88909002019075z" style="fill:rgb(32,65,185)"/><path d="M74.53699590980581,-182.5777127405901L107.32002092965745,-228.2990778416745L102.98712126053096,-230.53182363147545z" style="fill:rgb(82,237,172)"/><path d="M-90.47576273548128,96.85704376175299L-98.12072483274919,97.33278181580874L-26.707413123625695,251.0956823737631z" style="fill:rgb(69,65,222)"/><path d="M-147.08941102222434,88.15884083333773L-223.68178088577667,-76.04342585214249L-229.77263736816195,-77.76958389204295z" style="fill:rgb(26,66,175)"/><path d="M74.53699590980581,-182.5777127405901L-235.09793276574123,-92.1725856242146L-236.48443346208074,-87.59341356371853z" style="fill:rgb(82,237,172)"/><path d="M-48.3062320684293,90.96529846814995L4.682249415029563,251.1992393407102L21.835308570967005,249.30412897338567z" style="fill:rgb(91,68,234)"/><path d="M139.1163923135686,0L133.40006275351274,5.003521383210553L185.4293124400802,170.80672377195214z" style="fill:rgb(213,124,221)"/><path d="M162.1918123137063,-28.295098634692415L101.89797292568205,-205.17217752231483L159.34100192607858,-23.82925265902221z" style="fill:rgb(234,143,195)"/><path d="M-82.7466909758107,96.37626811668763L-90.47576273548128,96.85704376175299L-26.707413123625695,251.0956823737631z" style="fill:rgb(69,65,222)"/><path d="M-129.59749533343117,94.69639977158324L-215.6069180722892,-75.20189962600155L-134.8340571680689,93.5441953157641z" style="fill:rgb(40,64,196)"/><path d="M99.50647441553512,30.312640412871467L145.24135416554103,202.68898874214437L160.09777481759565,192.46125855577213z" style="fill:rgb(184,105,239)"/><path d="M133.40006275351274,5.003521383210553L127.62027452807764,10.06279429701343L185.4293124400802,170.80672377195214z" style="fill:rgb(213,124,221)"/><path d="M-29.702847335868736,86.53208664050284L21.835308570967005,249.30412897338567L39.651853419220046,246.1012108390602z" style="fill:rgb(102,71,239)"/><path d="M-74.44830447863173,95.32021557651007L-82.7466909758107,96.37626811668763L-11.569009361541005,251.78782564282832z" style="fill:rgb(79,66,228)"/><path d="M74.53699590980581,-182.5777127405901L109.98699332129527,-225.26831222762715L107.32002092965745,-228.2990778416745z" style="fill:rgb(82,237,172)"/><path d="M83.22701057912407,40.191462110407194L129.1814032533999,212.29649833403192L145.24135416554103,202.68898874214437z" style="fill:rgb(174,99,242)"/><path d="M74.53699590980581,-182.5777127405901L-236.48443346208074,-87.59341356371853L-236.1145588738755,-83.61635389451692z" style="fill:rgb(82,237,172)"/><path d="M127.62027452807764,10.06279429701343L121.02584762254342,15.115536997997028L173.5493046287382,181.7779382344096z" style="fill:rgb(204,117,228)"/><path d="M-10.535296651533562,81.00204387541174L39.651853419220046,246.1012108390602L57.87079647251231,241.6160497952922z" style="fill:rgb(114,75,243)"/><path d="M159.34100192607858,-23.82925265902221L94.82914481205356,-198.2679014508122L156.44926199508848,-19.299451195754752z" style="fill:rgb(234,143,195)"/><path d="M-66.0701647721839,94.25418936861495L-74.44830447863173,95.32021557651007L-11.569009361541005,251.78782564282832z" style="fill:rgb(79,66,228)"/><path d="M-124.28585377774952,95.86505701401492L-205.55810163851743,-75.29954139813064L-129.59749533343117,94.69639977158324z" style="fill:rgb(40,64,196)"/><path d="M65.75581299793605,49.695282870359065L112.15001414210754,221.1272916773126L129.1814032533999,212.29649833403192z" style="fill:rgb(162,93,245)"/><path d="M164.10169025748795,-32.5390185497927L106.90117524211703,-211.36131819349592L101.89797292568205,-205.17217752231483z" style="fill:rgb(239,149,184)"/><path d="M121.02584762254342,15.115536997997028L114.36742145904046,20.21727100426031L173.5493046287382,181.7779382344096z" style="fill:rgb(204,117,228)"/><path d="M8.901312034298815,74.44726465953947L57.87079647251231,241.6160497952922L76.21601826006831,235.9018377013778z" style="fill:rgb(126,79,245)"/><path d="M-139.24634830078372,91.88909002019075L-215.6069180722892,-75.20189962600155L-223.68178088577667,-76.04342585214249z" style="fill:rgb(32,65,185)"/><path d="M47.351925359239374,58.66850107973567L94.40358119694511,229.03756586000665L112.15001414210754,221.1272916773126z" style="fill:rgb(151,88,246)"/><path d="M28.29999106402703,66.96389843692005L76.21601826006831,235.9018377013778L94.40358119694511,229.03756586000665z" style="fill:rgb(139,83,246)"/><path d="M156.44926199508848,-19.299451195754752L94.82914481205356,-198.2679014508122L152.6244751927807,-14.596542437673444z" style="fill:rgb(228,137,204)"/><path d="M-118.1905760394655,96.50222243448489L-205.55810163851743,-75.29954139813064L-124.28585377774952,95.86505701401492z" style="fill:rgb(49,63,205)"/><path d="M-57.223701426978636,92.61634864449027L-66.0701647721839,94.25418936861495L4.682249415029563,251.1992393407102z" style="fill:rgb(91,68,234)"/><path d="M114.36742145904046,20.21727100426031L106.96723506494034,25.244275842318142L160.09777481759565,192.46125855577213z" style="fill:rgb(195,111,234)"/><path d="M74.53699590980581,-182.5777127405901L110.87203257854395,-221.43142881374703L109.98699332129527,-225.26831222762715z" style="fill:rgb(82,237,172)"/><path d="M-48.3062320684293,90.96529846814995L-57.223701426978636,92.61634864449027L4.682249415029563,251.1992393407102z" style="fill:rgb(91,68,234)"/><path d="M74.53699590980581,-182.5777127405901L-236.1145588738755,-83.61635389451692L-233.90069904870398,-80.31723171410249z" style="fill:rgb(82,237,172)"/><path d="M106.96723506494034,25.244275842318142L99.50647441553512,30.312640412871467L160.09777481759565,192.46125855577213z" style="fill:rgb(195,111,234)"/><path d="M152.6244751927807,-14.596542437673444L85.6954453523215,-190.71010274436827L148.74820822803446,-9.830108552712431z" style="fill:rgb(228,137,204)"/><path d="M-39.034169308576864,88.7557293643046L-48.3062320684293,90.96529846814995L21.835308570967005,249.30412897338567z" style="fill:rgb(102,71,239)"/><path d="M-112.0139476232968,97.14793251802146L-193.5827962548669,-76.37847269736426L-118.1905760394655,96.50222243448489z" style="fill:rgb(49,63,205)"/><path d="M99.50647441553512,30.312640412871467L91.3931858161844,35.236009730355065L145.24135416554103,202.68898874214437z" style="fill:rgb(184,105,239)"/><path d="M-29.702847335868736,86.53208664050284L-39.034169308576864,88.7557293643046L21.835308570967005,249.30412897338567z" style="fill:rgb(102,71,239)"/><path d="M159.34100192607858,-23.82925265902221L101.89797292568205,-205.17217752231483L94.82914481205356,-198.2679014508122z" style="fill:rgb(234,143,195)"/><path d="M91.3931858161844,35.236009730355065L83.22701057912407,40.191462110407194L145.24135416554103,202.68898874214437z" style="fill:rgb(184,105,239)"/><path d="M148.74820822803446,-9.830108552712431L85.6954453523215,-190.71010274436827L143.9618399975124,-4.945316041047774z" style="fill:rgb(221,130,213)"/><path d="M-129.59749533343117,94.69639977158324L-205.55810163851743,-75.29954139813064L-215.6069180722892,-75.20189962600155z" style="fill:rgb(40,64,196)"/><path d="M-105.10987094696728,97.23980227142684L-193.5827962548669,-76.37847269736426L-112.0139476232968,97.14793251802146z" style="fill:rgb(58,64,214)"/><path d="M74.53699590980581,-182.5777127405901L109.87186862132013,-216.79068856875594L110.87203257854395,-221.43142881374703z" style="fill:rgb(82,237,172)"/><path d="M-20.141141511984934,83.77340114116986L-29.702847335868736,86.53208664050284L39.651853419220046,246.1012108390602z" style="fill:rgb(114,75,243)"/><path d="M74.53699590980581,-182.5777127405901L-233.90069904870398,-80.31723171410249L-229.77263736816195,-77.76958389204295z" style="fill:rgb(82,237,172)"/><path d="M83.22701057912407,40.191462110407194L74.51210654627113,44.93201406806939L129.1814032533999,212.29649833403192z" style="fill:rgb(174,99,242)"/><path d="M-10.535296651533562,81.00204387541174L-20.141141511984934,83.77340114116986L39.651853419220046,246.1012108390602z" style="fill:rgb(114,75,243)"/><path d="M74.51210654627113,44.93201406806939L65.75581299793605,49.695282870359065L129.1814032533999,212.29649833403192z" style="fill:rgb(174,99,242)"/><path d="M-0.8302362947762771,77.7291527700314L-10.535296651533562,81.00204387541174L57.87079647251231,241.6160497952922z" style="fill:rgb(126,79,245)"/><path d="M65.75581299793605,49.695282870359065L56.56734012542886,54.175473807800884L112.15001414210754,221.1272916773126z" style="fill:rgb(162,93,245)"/><path d="M8.901312034298815,74.44726465953947L-0.8302362947762771,77.7291527700314L57.87079647251231,241.6160497952922z" style="fill:rgb(126,79,245)"/><path d="M56.56734012542886,54.175473807800884L47.351925359239374,58.66850107973567L112.15001414210754,221.1272916773126z" style="fill:rgb(162,93,245)"/><path d="M18.596450101401373,70.70720072836026L8.901312034298815,74.44726465953947L76.21601826006831,235.9018377013778z" style="fill:rgb(139,83,246)"/><path d="M143.9618399975124,-4.945316041047774L74.53699590980581,-182.5777127405901L139.1163923135686,0z" style="fill:rgb(221,130,213)"/><path d="M47.351925359239374,58.66850107973567L37.83085508405327,62.81406931616845L94.40358119694511,229.03756586000665z" style="fill:rgb(151,88,246)"/><path d="M28.29999106402703,66.96389843692005L18.596450101401373,70.70720072836026L76.21601826006831,235.9018377013778z" style="fill:rgb(139,83,246)"/><path d="M37.83085508405327,62.81406931616845L28.29999106402703,66.96389843692005L94.40358119694511,229.03756586000665z" style="fill:rgb(151,88,246)"/><path d="M-98.12072483274919,97.33278181580874L-179.76861423909537,-78.46585711248628L-105.10987094696728,97.23980227142684z" style="fill:rgb(58,64,214)"/><path d="M74.53699590980581,-182.5777127405901L106.90117524211703,-211.36131819349592L109.87186862132013,-216.79068856875594z" style="fill:rgb(82,237,172)"/><path d="M139.1163923135686,0L74.53699590980581,-182.5777127405901L133.40006275351274,5.003521383210553z" style="fill:rgb(213,124,221)"/><path d="M74.53699590980581,-182.5777127405901L-229.77263736816195,-77.76958389204295L-223.68178088577667,-76.04342585214249z" style="fill:rgb(82,237,172)"/><path d="M-90.47576273548128,96.85704376175299L-179.76861423909537,-78.46585711248628L-98.12072483274919,97.33278181580874z" style="fill:rgb(69,65,222)"/><path d="M152.6244751927807,-14.596542437673444L94.82914481205356,-198.2679014508122L85.6954453523215,-190.71010274436827z" style="fill:rgb(228,137,204)"/><path d="M-118.1905760394655,96.50222243448489L-193.5827962548669,-76.37847269736426L-205.55810163851743,-75.29954139813064z" style="fill:rgb(49,63,205)"/><path d="M133.40006275351274,5.003521383210553L61.43670227096686,-173.96772753793107L127.62027452807764,10.06279429701343z" style="fill:rgb(213,124,221)"/><path d="M-82.7466909758107,96.37626811668763L-164.24536319262683,-81.57120255698032L-90.47576273548128,96.85704376175299z" style="fill:rgb(69,65,222)"/><path d="M74.53699590980581,-182.5777127405901L101.89797292568205,-205.17217752231483L106.90117524211703,-211.36131819349592zM74.53699590980581,-182.5777127405901L-223.68178088577667,-76.04342585214249L-215.6069180722892,-75.20189962600155z" style="fill:rgb(82,237,172)"/><path d="M127.62027452807764,10.06279429701343L61.43670227096686,-173.96772753793107L121.02584762254342,15.115536997997028z" style="fill:rgb(204,117,228)"/><path d="M-74.44830447863173,95.32021557651007L-164.24536319262683,-81.57120255698032L-82.7466909758107,96.37626811668763z" style="fill:rgb(79,66,228)"/><path d="M143.9618399975124,-4.945316041047774L85.6954453523215,-190.71010274436827L74.53699590980581,-182.5777127405901z" style="fill:rgb(221,130,213)"/><path d="M-105.10987094696728,97.23980227142684L-179.76861423909537,-78.46585711248628L-193.5827962548669,-76.37847269736426z" style="fill:rgb(58,64,214)"/><path d="M121.02584762254342,15.115536997997028L46.522142824326906,-164.99279220319133L114.36742145904046,20.21727100426031z" style="fill:rgb(204,117,228)"/><path d="M-66.0701647721839,94.25418936861495L-147.18772472185412,-85.68354612401741L-74.44830447863173,95.32021557651007z" style="fill:rgb(79,66,228)"/><path d="M74.53699590980581,-182.5777127405901L94.82914481205356,-198.2679014508122L101.89797292568205,-205.17217752231483z" style="fill:rgb(82,237,172)"/><path d="M114.36742145904046,20.21727100426031L46.522142824326906,-164.99279220319133L106.96723506494034,25.244275842318142z" style="fill:rgb(195,111,234)"/><path d="M74.53699590980581,-182.5777127405901L-215.6069180722892,-75.20189962600155L-205.55810163851743,-75.29954139813064z" style="fill:rgb(82,237,172)"/><path d="M-57.223701426978636,92.61634864449027L-147.18772472185412,-85.68354612401741L-66.0701647721839,94.25418936861495z" style="fill:rgb(91,68,234)"/><path d="M106.96723506494034,25.244275842318142L29.967481129100012,-155.78054816856712L99.50647441553512,30.312640412871467z" style="fill:rgb(195,111,234)"/><path d="M133.40006275351274,5.003521383210553L74.53699590980581,-182.5777127405901L61.43670227096686,-173.96772753793107z" style="fill:rgb(213,124,221)"/><path d="M-48.3062320684293,90.96529846814995L-128.8124599329219,-90.77071576503329L-57.223701426978636,92.61634864449027z" style="fill:rgb(91,68,234)"/><path d="M-90.47576273548128,96.85704376175299L-164.24536319262683,-81.57120255698032L-179.76861423909537,-78.46585711248628z" style="fill:rgb(69,65,222)"/><path d="M99.50647441553512,30.312640412871467L29.967481129100012,-155.78054816856712L91.3931858161844,35.236009730355065z" style="fill:rgb(184,105,239)"/><path d="M-39.034169308576864,88.7557293643046L-128.8124599329219,-90.77071576503329L-48.3062320684293,90.96529846814995z" style="fill:rgb(102,71,239)"/><path d="M74.53699590980581,-182.5777127405901L85.6954453523215,-190.71010274436827L94.82914481205356,-198.2679014508122zM74.53699590980581,-182.5777127405901L-205.55810163851743,-75.29954139813064L-193.5827962548669,-76.37847269736426z" style="fill:rgb(82,237,172)"/><path d="M91.3931858161844,35.236009730355065L11.990728735778433,-146.46995664190158L83.22701057912407,40.191462110407194z" style="fill:rgb(184,105,239)"/><path d="M-29.702847335868736,86.53208664050284L-109.37632010831258,-96.77737322535081L-39.034169308576864,88.7557293643046z" style="fill:rgb(102,71,239)"/><path d="M83.22701057912407,40.191462110407194L11.990728735778433,-146.46995664190158L74.51210654627113,44.93201406806939z" style="fill:rgb(174,99,242)"/><path d="M-20.141141511984934,83.77340114116986L-109.37632010831258,-96.77737322535081L-29.702847335868736,86.53208664050284z" style="fill:rgb(114,75,243)"/><path d="M121.02584762254342,15.115536997997028L61.43670227096686,-173.96772753793107L46.522142824326906,-164.99279220319133z" style="fill:rgb(204,117,228)"/><path d="M74.51210654627113,44.93201406806939L-7.149719276452291,-137.20866480931443L65.75581299793605,49.695282870359065z" style="fill:rgb(174,99,242)"/><path d="M-74.44830447863173,95.32021557651007L-147.18772472185412,-85.68354612401741L-164.24536319262683,-81.57120255698032z" style="fill:rgb(79,66,228)"/><path d="M-10.535296651533562,81.00204387541174L-89.16904698914794,-103.62622680604039L-20.141141511984934,83.77340114116986z" style="fill:rgb(114,75,243)"/><path d="M65.75581299793605,49.695282870359065L-7.149719276452291,-137.20866480931443L56.56734012542886,54.175473807800884z" style="fill:rgb(162,93,245)"/><path d="M74.53699590980581,-182.5777127405901L-193.5827962548669,-76.37847269736426L-179.76861423909537,-78.46585711248628z" style="fill:rgb(82,237,172)"/><path d="M-0.8302362947762771,77.7291527700314L-89.16904698914794,-103.62622680604039L-10.535296651533562,81.00204387541174z" style="fill:rgb(126,79,245)"/><path d="M56.56734012542886,54.175473807800884L-27.16111002165807,-128.14748937646226L47.351925359239374,58.66850107973567z" style="fill:rgb(162,93,245)"/><path d="M8.901312034298815,74.44726465953947L-68.50763492457973,-111.21816249785289L-0.8302362947762771,77.7291527700314z" style="fill:rgb(126,79,245)"/><path d="M47.351925359239374,58.66850107973567L-27.16111002165807,-128.14748937646226L37.83085508405327,62.81406931616845z" style="fill:rgb(151,88,246)"/><path d="M18.596450101401373,70.70720072836026L-68.50763492457973,-111.21816249785289L8.901312034298815,74.44726465953947z" style="fill:rgb(139,83,246)"/><path d="M37.83085508405327,62.81406931616845L-47.72524875370034,-119.43612336413605L28.29999106402703,66.96389843692005z" style="fill:rgb(151,88,246)"/><path d="M28.29999106402703,66.96389843692005L-47.72524875370034,-119.43612336413605L18.596450101401373,70.70720072836026z" style="fill:rgb(139,83,246)"/><path d="M106.96723506494034,25.244275842318142L46.522142824326906,-164.99279220319133L29.967481129100012,-155.78054816856712z" style="fill:rgb(195,111,234)"/><path d="M-57.223701426978636,92.61634864449027L-128.8124599329219,-90.77071576503329L-147.18772472185412,-85.68354612401741z" style="fill:rgb(91,68,234)"/><path d="M74.53699590980581,-182.5777127405901L-179.76861423909537,-78.46585711248628L-164.24536319262683,-81.57120255698032z" style="fill:rgb(82,237,172)"/><path d="M91.3931858161844,35.236009730355065L29.967481129100012,-155.78054816856712L11.990728735778433,-146.46995664190158z" style="fill:rgb(184,105,239)"/><path d="M74.53699590980581,-182.5777127405901L46.522142824326906,-164.99279220319133L61.43670227096686,-173.96772753793107z" style="fill:rgb(82,237,172)"/><path d="M-39.034169308576864,88.7557293643046L-109.37632010831258,-96.77737322535081L-128.8124599329219,-90.77071576503329z" style="fill:rgb(102,71,239)"/><path d="M74.53699590980581,-182.5777127405901L-164.24536319262683,-81.57120255698032L-147.18772472185412,-85.68354612401741z" style="fill:rgb(82,237,172)"/><path d="M74.51210654627113,44.93201406806939L11.990728735778433,-146.46995664190158L-7.149719276452291,-137.20866480931443z" style="fill:rgb(174,99,242)"/><path d="M-20.141141511984934,83.77340114116986L-89.16904698914794,-103.62622680604039L-109.37632010831258,-96.77737322535081z" style="fill:rgb(114,75,243)"/><path d="M74.53699590980581,-182.5777127405901L29.967481129100012,-155.78054816856712L46.522142824326906,-164.99279220319133zM74.53699590980581,-182.5777127405901L-147.18772472185412,-85.68354612401741L-128.8124599329219,-90.77071576503329z" style="fill:rgb(82,237,172)"/><path d="M56.56734012542886,54.175473807800884L-7.149719276452291,-137.20866480931443L-27.16111002165807,-128.14748937646226z" style="fill:rgb(162,93,245)"/><path d="M-0.8302362947762771,77.7291527700314L-68.50763492457973,-111.21816249785289L-89.16904698914794,-103.62622680604039z" style="fill:rgb(126,79,245)"/><path d="M74.53699590980581,-182.5777127405901L11.990728735778433,-146.46995664190158L29.967481129100012,-155.78054816856712z" style="fill:rgb(82,237,172)"/><path d="M37.83085508405327,62.81406931616845L-27.16111002165807,-128.14748937646226L-47.72524875370034,-119.43612336413605z" style="fill:rgb(151,88,246)"/><path d="M18.596450101401373,70.70720072836026L-47.72524875370034,-119.43612336413605L-68.50763492457973,-111.21816249785289z" style="fill:rgb(139,83,246)"/><path d="M74.53699590980581,-182.5777127405901L-128.8124599329219,-90.77071576503329L-109.37632010831258,-96.77737322535081zM74.53699590980581,-182.5777127405901L-7.149719276452291,-137.20866480931443L11.990728735778433,-146.46995664190158zM74.53699590980581,-182.5777127405901L-109.37632010831258,-96.77737322535081L-89.16904698914794,-103.62622680604039zM74.53699590980581,-182.5777127405901L-27.16111002165807,-128.14748937646226L-7.149719276452291,-137.20866480931443zM74.53699590980581,-182.5777127405901L-89.16904698914794,-103.62622680604039L-68.50763492457973,-111.21816249785289zM74.53699590980581,-182.5777127405901L-47.72524875370034,-119.43612336413605L-27.16111002165807,-128.14748937646226zM74.53699590980581,-182.5777127405901L-68.50763492457973,-111.21816249785289L-47.72524875370034,-119.43612336413605z" style="fill:rgb(82,237,172)"/></svg>