solid JSxCAD
facet normal 0 0 1
outer loop
vertex 17.7953 7.01299 20
vertex 17.7953 2.98701 20
vertex 18 5 20
endloop
endfacet
facet normal 0 0 1
outer loop
vertex 17.18958 8.94356 20
vertex 17.7953 2.98701 20
vertex 17.7953 7.01299 20
endloop
endfacet
facet normal 0 0 1
outer loop
vertex 17.18958 8.94356 20
vertex 17.18958 1.05644 20
vertex 17.7953 2.98701 20
endloop
endfacet
facet normal 0 0 1
outer loop
vertex 16.20763 10.71268 20
vertex 17.18958 1.05644 20
vertex 17.18958 8.94356 20
endloop
endfacet
facet normal 0 0 1
outer loop
vertex 16.20763 10.71268 20
vertex 16.20763 -0.71268 20
vertex 17.18958 1.05644 20
endloop
endfacet
facet normal 0 0 1
outer loop
vertex 14.88967 12.24793 20
vertex 16.20763 -0.71268 20
vertex 16.20763 10.71268 20
endloop
endfacet
facet normal 0 0 1
outer loop
vertex 14.88967 12.24793 20
vertex 14.88967 -2.24793 20
vertex 16.20763 -0.71268 20
endloop
endfacet
facet normal 0 0 1
outer loop
vertex 13.28964 13.48644 20
vertex 14.88967 -2.24793 20
vertex 14.88967 12.24793 20
endloop
endfacet
facet normal 0 0 1
outer loop
vertex 13.28964 13.48644 20
vertex 13.28964 -3.48644 20
vertex 14.88967 -2.24793 20
endloop
endfacet
facet normal 0 0 1
outer loop
vertex 11.47305 14.37752 20
vertex 13.28964 -3.48644 20
vertex 13.28964 13.48644 20
endloop
endfacet
facet normal 0 0 1
outer loop
vertex 11.47305 14.37752 20
vertex 11.47305 -4.37752 20
vertex 13.28964 -3.48644 20
endloop
endfacet
facet normal 0 0 1
outer loop
vertex 9.51428 14.88468 20
vertex 11.47305 -4.37752 20
vertex 11.47305 14.37752 20
endloop
endfacet
facet normal 0 0 1
outer loop
vertex 9.51428 14.88468 20
vertex 9.51428 -4.88468 20
vertex 11.47305 -4.37752 20
endloop
endfacet
facet normal 0 0 1
outer loop
vertex 7.49351 14.98717 20
vertex 9.51428 -4.88468 20
vertex 9.51428 14.88468 20
endloop
endfacet
facet normal 0 0 1
outer loop
vertex 7.49351 14.98717 20
vertex 7.49351 -4.98717 20
vertex 9.51428 -4.88468 20
endloop
endfacet
facet normal 0 0 1
outer loop
vertex 5.49347 14.68077 20
vertex 7.49351 -4.98717 20
vertex 7.49351 14.98717 20
endloop
endfacet
facet normal 0 0 1
outer loop
vertex 5.49347 14.68077 20
vertex 5.49347 -4.68077 20
vertex 7.49351 -4.98717 20
endloop
endfacet
facet normal 0 0 1
outer loop
vertex 5 9.82804 20
vertex 5 -4.49801 20
vertex 5.49347 -4.68077 20
endloop
endfacet
facet normal 0 0 1
outer loop
vertex 5 9.82804 20
vertex 5.49347 -4.68077 20
vertex 5.49347 14.68077 20
endloop
endfacet
facet normal 0 0 1
outer loop
vertex 5 9.82804 20
vertex 5.49347 14.68077 20
vertex 5 14.49801 20
endloop
endfacet
facet normal 0 0 1
outer loop
vertex 5 9.82804 20
vertex 3.59606 -3.97805 20
vertex 5 -4.49801 20
endloop
endfacet
facet normal 0 0 1
outer loop
vertex 3.59606 -3.97805 20
vertex 5 9.82804 20
vertex 5 14.49801 20
endloop
endfacet
facet normal 0 0 1
outer loop
vertex 3.59606 -3.97805 20
vertex 5 14.49801 20
vertex 3.59606 13.97805 20
endloop
endfacet
facet normal 0 0 1
outer loop
vertex 3.59606 -3.97805 20
vertex 3.59606 13.97805 20
vertex 1.87894 12.90776 20
endloop
endfacet
facet normal 0 0 1
outer loop
vertex 1.87894 -2.90776 20
vertex 3.59606 -3.97805 20
vertex 1.87894 12.90776 20
endloop
endfacet
facet normal 0 0 1
outer loop
vertex 1.87894 -2.90776 20
vertex 1.87894 12.90776 20
vertex 0.41242 11.51372 20
endloop
endfacet
facet normal 0 0 1
outer loop
vertex 0.41242 -1.51372 20
vertex 1.87894 -2.90776 20
vertex 0.41242 11.51372 20
endloop
endfacet
facet normal 0 0 1
outer loop
vertex 0.41242 -1.51372 20
vertex 0.41242 11.51372 20
vertex -0.74347 9.85302 20
endloop
endfacet
facet normal 0 0 1
outer loop
vertex -0.74347 0.14698 20
vertex 0.41242 -1.51372 20
vertex -0.74347 9.85302 20
endloop
endfacet
facet normal 0 0 1
outer loop
vertex -0.74347 0.14698 20
vertex -0.74347 9.85302 20
vertex -1.54139 7.99363 20
endloop
endfacet
facet normal 0 0 1
outer loop
vertex -1.54139 2.00637 20
vertex -0.74347 0.14698 20
vertex -1.54139 7.99363 20
endloop
endfacet
facet normal 0 0 1
outer loop
vertex -1.54139 2.00637 20
vertex -1.54139 7.99363 20
vertex -1.94869 6.01168 20
endloop
endfacet
facet normal 0 0 1
outer loop
vertex -1.94869 6.01168 20
vertex -1.94869 3.98832 20
vertex -1.54139 2.00637 20
endloop
endfacet
facet normal 0 0 -1
outer loop
vertex 18 5 0
vertex 17.7953 2.98701 0
vertex 17.7953 7.01299 0
endloop
endfacet
facet normal 0 0 -1
outer loop
vertex 17.7953 7.01299 0
vertex 17.7953 2.98701 0
vertex 17.18958 8.94356 0
endloop
endfacet
facet normal 0 0 -1
outer loop
vertex 17.7953 2.98701 0
vertex 17.18958 1.05644 0
vertex 17.18958 8.94356 0
endloop
endfacet
facet normal 0 0 -1
outer loop
vertex 17.18958 8.94356 0
vertex 17.18958 1.05644 0
vertex 16.20763 10.71268 0
endloop
endfacet
facet normal 0 0 -1
outer loop
vertex 17.18958 1.05644 0
vertex 16.20763 -0.71268 0
vertex 16.20763 10.71268 0
endloop
endfacet
facet normal 0 0 -1
outer loop
vertex 16.20763 10.71268 0
vertex 16.20763 -0.71268 0
vertex 14.88967 12.24793 0
endloop
endfacet
facet normal 0 0 -1
outer loop
vertex 16.20763 -0.71268 0
vertex 14.88967 -2.24793 0
vertex 14.88967 12.24793 0
endloop
endfacet
facet normal 0 0 -1
outer loop
vertex 14.88967 12.24793 0
vertex 14.88967 -2.24793 0
vertex 13.28964 13.48644 0
endloop
endfacet
facet normal 0 0 -1
outer loop
vertex 14.88967 -2.24793 0
vertex 13.28964 -3.48644 0
vertex 13.28964 13.48644 0
endloop
endfacet
facet normal 0 0 -1
outer loop
vertex 13.28964 13.48644 0
vertex 13.28964 -3.48644 0
vertex 11.47305 14.37752 0
endloop
endfacet
facet normal 0 0 -1
outer loop
vertex 13.28964 -3.48644 0
vertex 11.47305 -4.37752 0
vertex 11.47305 14.37752 0
endloop
endfacet
facet normal 0 0 -1
outer loop
vertex 11.47305 14.37752 0
vertex 11.47305 -4.37752 0
vertex 9.51428 14.88468 0
endloop
endfacet
facet normal 0 0 -1
outer loop
vertex 11.47305 -4.37752 0
vertex 9.51428 -4.88468 0
vertex 9.51428 14.88468 0
endloop
endfacet
facet normal 0 0 -1
outer loop
vertex 9.51428 14.88468 0
vertex 9.51428 -4.88468 0
vertex 7.49351 14.98717 0
endloop
endfacet
facet normal 0 0 -1
outer loop
vertex 9.51428 -4.88468 0
vertex 7.49351 -4.98717 0
vertex 7.49351 14.98717 0
endloop
endfacet
facet normal 0 0 -1
outer loop
vertex 7.49351 14.98717 0
vertex 7.49351 -4.98717 0
vertex 5.49347 14.68077 0
endloop
endfacet
facet normal 0 0 -1
outer loop
vertex 7.49351 -4.98717 0
vertex 5.49347 -4.68077 0
vertex 5.49347 14.68077 0
endloop
endfacet
facet normal 0 0 -1
outer loop
vertex 5 -4.49801 0
vertex 5 9.82804 0
vertex 5.49347 14.68077 0
endloop
endfacet
facet normal 0 0 -1
outer loop
vertex 5 -4.49801 0
vertex 5.49347 14.68077 0
vertex 5.49347 -4.68077 0
endloop
endfacet
facet normal 0 0 -1
outer loop
vertex 5 9.82804 0
vertex 5 14.49801 0
vertex 5.49347 14.68077 0
endloop
endfacet
facet normal 0 0 -1
outer loop
vertex 4.50904 5 0
vertex 5 9.82804 0
vertex 5 5 0
endloop
endfacet
facet normal 0 0 -1
outer loop
vertex 4.50904 5 0
vertex 3.59606 5 0
vertex 3.59606 13.97805 0
endloop
endfacet
facet normal 0 0 -1
outer loop
vertex 4.50904 5 0
vertex 3.59606 13.97805 0
vertex 5 14.49801 0
endloop
endfacet
facet normal 0 0 -1
outer loop
vertex 4.50904 5 0
vertex 5 14.49801 0
vertex 5 9.82804 0
endloop
endfacet
facet normal 0 0 -1
outer loop
vertex 2.68308 5 0
vertex 1.87894 12.90776 0
vertex 3.59606 13.97805 0
endloop
endfacet
facet normal 0 0 -1
outer loop
vertex 2.68308 5 0
vertex 3.59606 13.97805 0
vertex 3.59606 5 0
endloop
endfacet
facet normal 0 0 -1
outer loop
vertex 1.87894 5 0
vertex 1.87894 12.90776 0
vertex 2.68308 5 0
endloop
endfacet
facet normal 0 0 -1
outer loop
vertex 1.0748 5 0
vertex 0.41242 11.51372 0
vertex 1.87894 12.90776 0
endloop
endfacet
facet normal 0 0 -1
outer loop
vertex 1.0748 5 0
vertex 1.87894 12.90776 0
vertex 1.87894 5 0
endloop
endfacet
facet normal 0 0 -1
outer loop
vertex 0.41242 5 0
vertex 0.41242 11.51372 0
vertex 1.0748 5 0
endloop
endfacet
facet normal 0 0 -1
outer loop
vertex -0.24996 5 0
vertex -0.74347 9.85302 0
vertex 0.41242 11.51372 0
endloop
endfacet
facet normal 0 0 -1
outer loop
vertex -0.24996 5 0
vertex 0.41242 11.51372 0
vertex 0.41242 5 0
endloop
endfacet
facet normal 0 0 -1
outer loop
vertex -0.74347 5 0
vertex -0.74347 9.85302 0
vertex -0.24996 5 0
endloop
endfacet
facet normal 0 0 -1
outer loop
vertex -1.23697 5 0
vertex -1.54139 7.99363 0
vertex -0.74347 9.85302 0
endloop
endfacet
facet normal 0 0 -1
outer loop
vertex -1.23697 5 0
vertex -0.74347 9.85302 0
vertex -0.74347 5 0
endloop
endfacet
facet normal 0 0 -1
outer loop
vertex -1.54139 5 0
vertex -1.54139 7.99363 0
vertex -1.23697 5 0
endloop
endfacet
facet normal 0 0 -1
outer loop
vertex -1.84582 5 0
vertex -1.94869 6.01168 0
vertex -1.54139 7.99363 0
endloop
endfacet
facet normal 0 0 -1
outer loop
vertex -1.84582 5 0
vertex -1.54139 7.99363 0
vertex -1.54139 5 0
endloop
endfacet
facet normal 0 0 -1
outer loop
vertex -1.84582 5 0
vertex -1.94869 5 0
vertex -1.94869 6.01168 0
endloop
endfacet
facet normal 0.9948693768905895 -0.10116779589044292 0
outer loop
vertex 18 5 0
vertex 18 5 20
vertex 17.7953 2.98701 0
endloop
endfacet
facet normal 0.9948693768905895 -0.10116779589044292 0
outer loop
vertex 17.7953 2.98701 0
vertex 18 5 20
vertex 17.7953 2.98701 20
endloop
endfacet
facet normal 0.05065318366328661 -0.9987163035541041 0
outer loop
vertex 9.51428 -4.88468 0
vertex 9.51428 -4.88468 20
vertex 7.49351 -4.98717 0
endloop
endfacet
facet normal 0.05065318366328661 -0.9987163035541041 0
outer loop
vertex 7.49351 -4.98717 0
vertex 9.51428 -4.88468 20
vertex 7.49351 -4.98717 20
endloop
endfacet
facet normal -0.6889692012126759 -0.7247906178893097 0
outer loop
vertex 1.87894 -2.90776 10
vertex 1.87894 -2.90776 20
vertex 1.14568 -2.21074 10
endloop
endfacet
facet normal -0.6889692012126759 -0.7247906178893098 -1.0973996017960963e-17
outer loop
vertex 1.14568 -2.21074 10
vertex 1.87894 -2.90776 20
vertex 0.41242 -1.51372 20
endloop
endfacet
facet normal -0.6889692012126758 -0.7247906178893098 0
outer loop
vertex 1.14568 -2.21074 10
vertex 0.41242 -1.51372 20
vertex 0.41242 -1.51372 10
endloop
endfacet
facet normal -1 0 0
outer loop
vertex -1.94869 3.98832 10
vertex -1.94869 3.98832 20
vertex -1.94869 5 10
endloop
endfacet
facet normal -1 0 0
outer loop
vertex -1.94869 5 10
vertex -1.94869 3.98832 20
vertex -1.94869 6.01168 20
endloop
endfacet
facet normal -1 0 0
outer loop
vertex -1.94869 5 10
vertex -1.94869 6.01168 20
vertex -1.94869 6.01168 10
endloop
endfacet
facet normal -1 0 0
outer loop
vertex -1.94869 5 10
vertex -1.94869 6.01168 0
vertex -1.94869 5 0
endloop
endfacet
facet normal -1 0 0
outer loop
vertex -1.94869 6.01168 10
vertex -1.94869 6.01168 0
vertex -1.94869 5 10
endloop
endfacet
facet normal -0.6889692012126759 0.7247906178893097 0
outer loop
vertex 0.41242 11.51372 10
vertex 0.41242 11.51372 20
vertex 1.14568 12.21074 10
endloop
endfacet
facet normal -0.6889692012126759 0.7247906178893097 0
outer loop
vertex 1.14568 12.21074 10
vertex 0.41242 11.51372 20
vertex 1.87894 12.90776 20
endloop
endfacet
facet normal -0.6889692012126759 0.7247906178893097 0
outer loop
vertex 1.14568 12.21074 10
vertex 1.87894 12.90776 20
vertex 1.87894 12.90776 10
endloop
endfacet
facet normal -0.6889692012126759 0.7247906178893097 0
outer loop
vertex 0.41242 11.51372 10
vertex 1.14568 12.21074 10
vertex 1.87894 12.90776 0
endloop
endfacet
facet normal -0.6889692012126759 0.7247906178893097 0
outer loop
vertex 0.41242 11.51372 10
vertex 1.87894 12.90776 0
vertex 0.41242 11.51372 0
endloop
endfacet
facet normal -0.6889692012126759 0.7247906178893097 0
outer loop
vertex 1.14568 12.21074 10
vertex 1.87894 12.90776 10
vertex 1.87894 12.90776 0
endloop
endfacet
facet normal 0.6121043108819777 -0.7907770309004297 0
outer loop
vertex 14.88967 -2.24793 0
vertex 14.88967 -2.24793 20
vertex 13.28964 -3.48644 0
endloop
endfacet
facet normal 0.6121043108819777 -0.7907770309004297 0
outer loop
vertex 13.28964 -3.48644 0
vertex 14.88967 -2.24793 20
vertex 13.28964 -3.48644 20
endloop
endfacet
facet normal 0.9948693768905893 0.10116779589044288 0
outer loop
vertex 17.7953 7.01299 0
vertex 17.7953 7.01299 20
vertex 18 5 0
endloop
endfacet
facet normal 0.9948693768905893 0.10116779589044288 0
outer loop
vertex 18 5 0
vertex 17.7953 7.01299 20
vertex 18 5 20
endloop
endfacet
facet normal -0.8207591110459878 0.5712744363569928 0
outer loop
vertex -0.74347 9.85302 10
vertex -0.74347 9.85302 20
vertex -0.16552 10.68337 10
endloop
endfacet
facet normal -0.8207614283604784 0.571271107019687 -4.103807141761692e-7
outer loop
vertex -0.16552 10.68337 10
vertex -0.74347 9.85302 20
vertex 0.41242 11.51372 20
endloop
endfacet
facet normal -0.8207637456746875 0.5712677776542775 0
outer loop
vertex -0.16552 10.68337 10
vertex 0.41242 11.51372 20
vertex 0.41242 11.51372 10
endloop
endfacet
facet normal -0.8207591110457113 0.5712744363568004 8.207591110485453e-7
outer loop
vertex -0.74347 9.85302 10
vertex -0.16552 10.68337 10
vertex 0.41242 11.51372 0
endloop
endfacet
facet normal -0.8207614283605477 0.571271107019735 0
outer loop
vertex -0.74347 9.85302 10
vertex 0.41242 11.51372 0
vertex -0.74347 9.85302 0
endloop
endfacet
facet normal -0.8207637456746875 0.5712677776542775 0
outer loop
vertex -0.16552 10.68337 10
vertex 0.41242 11.51372 10
vertex 0.41242 11.51372 0
endloop
endfacet
facet normal 0.8743448768106902 0.48530509619712325 0
outer loop
vertex 16.20763 10.71268 0
vertex 16.20763 10.71268 20
vertex 17.18958 8.94356 0
endloop
endfacet
facet normal 0.8743448768106902 0.48530509619712325 0
outer loop
vertex 17.18958 8.94356 0
vertex 16.20763 10.71268 20
vertex 17.18958 8.94356 20
endloop
endfacet
facet normal -0.9189598502529198 0.3943511045035008 0
outer loop
vertex -1.54139 7.99363 10
vertex -1.54139 7.99363 20
vertex -1.14243 8.92333 10
endloop
endfacet
facet normal -0.9189590816663303 0.3943528955427306 1.9717644777018744e-7
outer loop
vertex -1.14243 8.92333 10
vertex -1.54139 7.99363 20
vertex -0.74347 9.85302 20
endloop
endfacet
facet normal -0.9189583130693044 0.3943546865967467 0
outer loop
vertex -1.14243 8.92333 10
vertex -0.74347 9.85302 20
vertex -0.74347 9.85302 10
endloop
endfacet
facet normal -0.9189598502528483 0.39435110450347016 -3.943511044956275e-7
outer loop
vertex -1.54139 7.99363 10
vertex -1.14243 8.92333 10
vertex -0.74347 9.85302 0
endloop
endfacet
facet normal -0.9189590816663482 0.3943528955427383 0
outer loop
vertex -1.54139 7.99363 10
vertex -0.74347 9.85302 0
vertex -1.54139 7.99363 0
endloop
endfacet
facet normal -0.9189583130693044 0.3943546865967467 0
outer loop
vertex -1.14243 8.92333 10
vertex -0.74347 9.85302 10
vertex -0.74347 9.85302 0
endloop
endfacet
facet normal 0.6121043108819777 0.7907770309004297 0
outer loop
vertex 13.28964 13.48644 0
vertex 13.28964 13.48644 20
vertex 14.88967 12.24793 0
endloop
endfacet
facet normal 0.6121043108819777 0.7907770309004297 0
outer loop
vertex 14.88967 12.24793 0
vertex 13.28964 13.48644 20
vertex 14.88967 12.24793 20
endloop
endfacet
facet normal 0.87434487681069 -0.48530509619712336 0
outer loop
vertex 17.18958 1.05644 0
vertex 17.18958 1.05644 20
vertex 16.20763 -0.71268 0
endloop
endfacet
facet normal 0.87434487681069 -0.48530509619712336 0
outer loop
vertex 16.20763 -0.71268 0
vertex 17.18958 1.05644 20
vertex 16.20763 -0.71268 20
endloop
endfacet
facet normal 0.7587602952696508 -0.6513699519645593 0
outer loop
vertex 16.20763 -0.71268 0
vertex 16.20763 -0.71268 20
vertex 14.88967 -2.24793 0
endloop
endfacet
facet normal 0.7587602952696508 -0.6513699519645593 0
outer loop
vertex 14.88967 -2.24793 0
vertex 16.20763 -0.71268 20
vertex 14.88967 -2.24793 20
endloop
endfacet
facet normal -0.1514302604091468 0.9884679439579303 0
outer loop
vertex 5.49347 14.68077 0
vertex 5.49347 14.68077 20
vertex 7.49351 14.98717 0
endloop
endfacet
facet normal -0.1514302604091468 0.9884679439579303 0
outer loop
vertex 7.49351 14.98717 0
vertex 5.49347 14.68077 20
vertex 7.49351 14.98717 20
endloop
endfacet
facet normal 0.440394177001562 0.8978045270898988 0
outer loop
vertex 11.47305 14.37752 0
vertex 11.47305 14.37752 20
vertex 13.28964 13.48644 0
endloop
endfacet
facet normal 0.440394177001562 0.8978045270898988 0
outer loop
vertex 13.28964 13.48644 0
vertex 11.47305 14.37752 20
vertex 13.28964 13.48644 20
endloop
endfacet
facet normal 0.7587602952696507 0.6513699519645595 0
outer loop
vertex 14.88967 12.24793 0
vertex 14.88967 12.24793 20
vertex 16.20763 10.71268 0
endloop
endfacet
facet normal 0.7587602952696507 0.6513699519645595 0
outer loop
vertex 16.20763 10.71268 0
vertex 14.88967 12.24793 20
vertex 16.20763 10.71268 20
endloop
endfacet
facet normal -0.5289607784624709 0.8486462719227469 0
outer loop
vertex 1.87894 12.90776 10
vertex 1.87894 12.90776 20
vertex 2.7375 13.4429 10
endloop
endfacet
facet normal -0.5289643378704333 0.8486440533351506 -4.2432202664011695e-7
outer loop
vertex 2.7375 13.4429 10
vertex 1.87894 12.90776 20
vertex 3.59606 13.97805 20
endloop
endfacet
facet normal -0.5289678972505751 0.8486418347443785 0
outer loop
vertex 2.7375 13.4429 10
vertex 3.59606 13.97805 20
vertex 3.59606 13.97805 10
endloop
endfacet
facet normal -0.5289607784622805 0.8486462719224414 8.486462718620377e-7
outer loop
vertex 1.87894 12.90776 10
vertex 2.7375 13.4429 10
vertex 3.59606 13.97805 0
endloop
endfacet
facet normal -0.5289643378704809 0.8486440533352271 0
outer loop
vertex 1.87894 12.90776 10
vertex 3.59606 13.97805 0
vertex 1.87894 12.90776 0
endloop
endfacet
facet normal -0.5289678972505751 0.8486418347443785 0
outer loop
vertex 2.7375 13.4429 10
vertex 3.59606 13.97805 10
vertex 3.59606 13.97805 0
endloop
endfacet
facet normal -0.9795302466548762 0.20129703397774498 0
outer loop
vertex -1.94869 6.01168 10
vertex -1.94869 6.01168 20
vertex -1.74504 7.00266 10
endloop
endfacet
facet normal -0.9795300463918005 0.20129800847416962 1.0064900422183077e-7
outer loop
vertex -1.74504 7.00266 10
vertex -1.94869 6.01168 20
vertex -1.54139 7.99363 20
endloop
endfacet
facet normal -0.9795298461258265 0.20129898297983237 0
outer loop
vertex -1.74504 7.00266 10
vertex -1.54139 7.99363 20
vertex -1.54139 7.99363 10
endloop
endfacet
facet normal -0.9795302466548563 0.20129703397774093 -2.012970339472329e-7
outer loop
vertex -1.94869 6.01168 10
vertex -1.74504 7.00266 10
vertex -1.54139 7.99363 0
endloop
endfacet
facet normal -0.9795300463918055 0.20129800847417065 0
outer loop
vertex -1.94869 6.01168 10
vertex -1.54139 7.99363 0
vertex -1.94869 6.01168 0
endloop
endfacet
facet normal -0.9795298461258265 0.20129898297983237 0
outer loop
vertex -1.74504 7.00266 10
vertex -1.54139 7.99363 10
vertex -1.54139 7.99363 0
endloop
endfacet
facet normal 0.9541392910110491 -0.2993630126601025 0
outer loop
vertex 17.7953 2.98701 0
vertex 17.7953 2.98701 20
vertex 17.18958 1.05644 0
endloop
endfacet
facet normal 0.9541392910110491 -0.2993630126601025 0
outer loop
vertex 17.18958 1.05644 0
vertex 17.7953 2.98701 20
vertex 17.18958 1.05644 20
endloop
endfacet
facet normal -0.9795298461258265 -0.20129898297983237 0
outer loop
vertex -1.54139 2.00637 10
vertex -1.54139 2.00637 20
vertex -1.74504 2.99734 10
endloop
endfacet
facet normal -0.9795300463918005 -0.2012980084741696 1.00649004225946e-7
outer loop
vertex -1.74504 2.99734 10
vertex -1.54139 2.00637 20
vertex -1.94869 3.98832 20
endloop
endfacet
facet normal -0.9795302466548762 -0.2012970339777449 0
outer loop
vertex -1.74504 2.99734 10
vertex -1.94869 3.98832 20
vertex -1.94869 3.98832 10
endloop
endfacet
facet normal -0.34730321517825785 0.9377528868133891 0
outer loop
vertex 5 14.49801 5.20154
vertex 5.49347 14.68077 0
vertex 5 14.49801 0
endloop
endfacet
facet normal -0.34730321517825785 0.9377528868133891 0
outer loop
vertex 5 14.49801 5.20154
vertex 5 14.49801 20
vertex 5.49347 14.68077 20
endloop
endfacet
facet normal -0.34730321517825785 0.9377528868133891 0
outer loop
vertex 5 14.49801 5.20154
vertex 5.49347 14.68077 20
vertex 5.49347 14.68077 0
endloop
endfacet
facet normal -0.34730212237227 0.9377532915408597 0
outer loop
vertex 4.54477 14.32941 10
vertex 3.59606 13.97805 10
vertex 3.59606 13.97805 20
endloop
endfacet
facet normal -0.34730391364518703 0.9377526281310541 -1.9324941984537752e-7
outer loop
vertex 4.54477 14.32941 10
vertex 3.59606 13.97805 20
vertex 5 14.49801 20
endloop
endfacet
facet normal -0.3473076466877736 0.9377512455615299 0
outer loop
vertex 4.54477 14.32941 10
vertex 5 14.49801 20
vertex 5 14.49801 10
endloop
endfacet
facet normal -0.3473076466877736 0.9377512455615298 0
outer loop
vertex 4.54477 14.32941 10
vertex 5 14.49801 5.20154
vertex 5 14.49801 0
endloop
endfacet
facet normal -0.34730391364518703 0.9377526281310541 1.9324941984537752e-7
outer loop
vertex 4.54477 14.32941 10
vertex 5 14.49801 0
vertex 3.59606 13.97805 0
endloop
endfacet
facet normal -0.34730212237227 0.9377532915408597 0
outer loop
vertex 4.54477 14.32941 10
vertex 3.59606 13.97805 0
vertex 3.59606 13.97805 10
endloop
endfacet
facet normal -0.3473076466877736 0.9377512455615298 0
outer loop
vertex 4.54477 14.32941 10
vertex 5 14.49801 10
vertex 5 14.49801 5.20154
endloop
endfacet
facet normal 0.2506522121717598 -0.968077201742404 0
outer loop
vertex 11.47305 -4.37752 0
vertex 11.47305 -4.37752 20
vertex 9.51428 -4.88468 0
endloop
endfacet
facet normal 0.2506522121717598 -0.968077201742404 0
outer loop
vertex 9.51428 -4.88468 0
vertex 11.47305 -4.37752 20
vertex 9.51428 -4.88468 20
endloop
endfacet
facet normal 0.250652212171759 0.9680772017424041 0
outer loop
vertex 9.51428 14.88468 0
vertex 9.51428 14.88468 20
vertex 11.47305 14.37752 0
endloop
endfacet
facet normal 0.250652212171759 0.9680772017424041 0
outer loop
vertex 11.47305 14.37752 0
vertex 9.51428 14.88468 20
vertex 11.47305 14.37752 20
endloop
endfacet
facet normal 0.9541392910110491 0.2993630126601026 0
outer loop
vertex 17.18958 8.94356 0
vertex 17.18958 8.94356 20
vertex 17.7953 7.01299 0
endloop
endfacet
facet normal 0.9541392910110491 0.2993630126601026 0
outer loop
vertex 17.7953 7.01299 0
vertex 17.18958 8.94356 20
vertex 17.7953 7.01299 20
endloop
endfacet
facet normal -0.1514302604091468 -0.9884679439579303 0
outer loop
vertex 7.49351 -4.98717 0
vertex 7.49351 -4.98717 20
vertex 5.49347 -4.68077 0
endloop
endfacet
facet normal -0.1514302604091468 -0.9884679439579303 0
outer loop
vertex 5.49347 -4.68077 0
vertex 7.49351 -4.98717 20
vertex 5.49347 -4.68077 20
endloop
endfacet
facet normal -0.5289678972505755 -0.8486418347443783 0
outer loop
vertex 3.59606 -3.97805 10
vertex 3.59606 -3.97805 20
vertex 2.7375 -3.4429 10
endloop
endfacet
facet normal -0.5289643378704333 -0.8486440533351506 -4.2432202667578244e-7
outer loop
vertex 2.7375 -3.4429 10
vertex 3.59606 -3.97805 20
vertex 1.87894 -2.90776 20
endloop
endfacet
facet normal -0.5289607784624706 -0.8486462719227471 0
outer loop
vertex 2.7375 -3.4429 10
vertex 1.87894 -2.90776 20
vertex 1.87894 -2.90776 10
endloop
endfacet
facet normal -0.8207637456746878 -0.5712677776542772 0
outer loop
vertex 0.41242 -1.51372 10
vertex 0.41242 -1.51372 20
vertex -0.16552 -0.68337 10
endloop
endfacet
facet normal -0.8207614283604787 -0.5712711070196868 -4.1038071417342544e-7
outer loop
vertex -0.16552 -0.68337 10
vertex 0.41242 -1.51372 20
vertex -0.74347 0.14698 20
endloop
endfacet
facet normal -0.820759111045988 -0.5712744363569926 0
outer loop
vertex -0.16552 -0.68337 10
vertex -0.74347 0.14698 20
vertex -0.74347 0.14698 10
endloop
endfacet
facet normal 0.44039417700156175 -0.8978045270898991 0
outer loop
vertex 13.28964 -3.48644 0
vertex 13.28964 -3.48644 20
vertex 11.47305 -4.37752 0
endloop
endfacet
facet normal 0.44039417700156175 -0.8978045270898991 0
outer loop
vertex 11.47305 -4.37752 0
vertex 13.28964 -3.48644 20
vertex 11.47305 -4.37752 20
endloop
endfacet
facet normal 0.05065318366328748 0.998716303554104 0
outer loop
vertex 7.49351 14.98717 0
vertex 7.49351 14.98717 20
vertex 9.51428 14.88468 0
endloop
endfacet
facet normal 0.05065318366328748 0.998716303554104 0
outer loop
vertex 9.51428 14.88468 0
vertex 7.49351 14.98717 20
vertex 9.51428 14.88468 20
endloop
endfacet
facet normal -0.9189583130693043 -0.394354686596747 0
outer loop
vertex -0.74347 0.14698 10
vertex -0.74347 0.14698 20
vertex -1.14243 1.07667 10
endloop
endfacet
facet normal -0.9189590816663303 -0.39435289554273084 1.9717644777567455e-7
outer loop
vertex -1.14243 1.07667 10
vertex -0.74347 0.14698 20
vertex -1.54139 2.00637 20
endloop
endfacet
facet normal -0.9189598502529198 -0.39435110450350097 0
outer loop
vertex -1.14243 1.07667 10
vertex -1.54139 2.00637 20
vertex -1.54139 2.00637 10
endloop
endfacet
facet normal -0.3473032151782579 -0.9377528868133891 0
outer loop
vertex 5.49347 -4.68077 20
vertex 5 -4.49801 14.79846
vertex 5 -4.49801 0
endloop
endfacet
facet normal -0.34730321517825785 -0.9377528868133891 0
outer loop
vertex 5.49347 -4.68077 20
vertex 5 -4.49801 0
vertex 5.49347 -4.68077 0
endloop
endfacet
facet normal -0.34730321517825785 -0.9377528868133891 0
outer loop
vertex 5 -4.49801 14.79846
vertex 5.49347 -4.68077 20
vertex 5 -4.49801 20
endloop
endfacet
facet normal -0.34730764668777037 -0.937751245561531 0
outer loop
vertex 4.54477 -4.32941 10
vertex 5 -4.49801 10
vertex 5 -4.49801 14.79846
endloop
endfacet
facet normal -0.34730391364519275 -0.937752628131072 0
outer loop
vertex 5 -4.49801 20
vertex 3.59606 -3.97805 20
vertex 3.59606 -3.97805 10
endloop
endfacet
facet normal -0.3473021223722562 -0.9377532915408213 -2.8597862598522596e-7
outer loop
vertex 5 -4.49801 20
vertex 3.59606 -3.97805 10
vertex 4.54477 -4.32941 10
endloop
endfacet
facet normal -0.34730764668777037 -0.937751245561531 0
outer loop
vertex 5 -4.49801 20
vertex 4.54477 -4.32941 10
vertex 5 -4.49801 14.79846
endloop
endfacet
facet normal -1 0 0
outer loop
vertex 5 -4.49801 0.50199
vertex 5 5 10
vertex 5 5 0
endloop
endfacet
facet normal -1 0 0
outer loop
vertex 5 -4.49801 0.50199
vertex 5 5 0
vertex 5 -4.49801 0
endloop
endfacet
facet normal -1 0 0
outer loop
vertex 5 -4.49801 10
vertex 5 5 10
vertex 5 -4.49801 0.50199
endloop
endfacet
facet normal 0 0 -1
outer loop
vertex 5 5 10
vertex 5 -4.49801 10
vertex 4.20273 -4.20273 10
endloop
endfacet
facet normal 0 0 -1
outer loop
vertex 5 5 10
vertex 4.20273 -4.20273 10
vertex -1.19186 1.19186 10
endloop
endfacet
facet normal 0 0 -1
outer loop
vertex 5 5 10
vertex -1.19186 1.19186 10
vertex -1.54139 2.00637 10
endloop
endfacet
facet normal 0 0 -1
outer loop
vertex 5 5 10
vertex -1.54139 2.00637 10
vertex -1.94869 3.98832 10
endloop
endfacet
facet normal 0 0 -1
outer loop
vertex 5 5 10
vertex -1.94869 3.98832 10
vertex -1.94869 5 10
endloop
endfacet
facet normal 0 0 -1
outer loop
vertex -0.74347 0.14698 10
vertex -1.19186 1.19186 10
vertex 4.20273 -4.20273 10
endloop
endfacet
facet normal 0 0 -1
outer loop
vertex -0.74347 0.14698 10
vertex 4.20273 -4.20273 10
vertex 3.59606 -3.97805 10
endloop
endfacet
facet normal 0 0 -1
outer loop
vertex -0.74347 0.14698 10
vertex 3.59606 -3.97805 10
vertex 1.87894 -2.90776 10
endloop
endfacet
facet normal 0 0 -1
outer loop
vertex -0.74347 0.14698 10
vertex 1.87894 -2.90776 10
vertex 0.41242 -1.51372 10
endloop
endfacet
facet normal 0 -1 0
outer loop
vertex -1.94869 5 6.94869
vertex -1.94869 5 0
vertex 5 5 0
endloop
endfacet
facet normal 0 -1 0
outer loop
vertex -1.94869 5 10
vertex -1.94869 5 6.94869
vertex 5 5 0
endloop
endfacet
facet normal 0 -1 0
outer loop
vertex -1.94869 5 10
vertex 5 5 0
vertex 5 5 10
endloop
endfacet
endsolid JSxCAD
