<svg viewBox="-250 -250 500 500" width="500" height="500" xmlns="http://www.w3.org/2000/svg"><path d="M107.9423802651755,-88.1346630119571L-33.93467167838137,-122.63100585240859L-48.443296679891105,-116.89533208612355zM107.9423802651755,-88.1346630119571L-48.443296679891105,-116.89533208612355L-62.80481359168856,-110.80978928484312zM107.9423802651755,-88.1346630119571L-19.36593680512338,-127.98169262668904L-33.93467167838137,-122.63100585240859zM107.9423802651755,-88.1346630119571L-62.80481359168856,-110.80978928484312L-76.93237829444296,-104.41026088094372zM107.9423802651755,-88.1346630119571L-4.825140171053052,-132.91227639058437L-19.36593680512338,-127.98169262668904zM107.9423802651755,-88.1346630119571L-76.93237829444296,-104.41026088094372L-90.73826353224378,-97.73355206677948zM107.9423802651755,-88.1346630119571L9.597533590370109,-137.3881476360003L-4.825140171053052,-132.91227639058437zM107.9423802651755,-88.1346630119571L-90.73826353224378,-97.73355206677948L-104.13416494544433,-90.81777412166603zM107.9423802651755,-88.1346630119571L23.81012275689634,-141.3745608141135L9.597533590370109,-137.3881476360003zM107.9423802651755,-88.1346630119571L-104.13416494544433,-90.81777412166603L-117.02945066540755,-83.70312882387745zM107.9423802651755,-88.1346630119571L37.716822149842834,-144.83646800603182L23.81012275689634,-141.3745608141135zM107.9423802651755,-88.1346630119571L-117.02945066540755,-83.70312882387745L-129.331303349644,-76.43162539189012zM107.9423802651755,-88.1346630119571L51.218209027250346,-147.73915168531286L37.716822149842834,-144.83646800603182zM107.9423802651755,-88.1346630119571L-129.331303349644,-76.43162539189012L-140.94378307417992,-69.04815659233314zM107.9423802651755,-88.1346630119571L64.21072190666698,-150.04754121246788L51.218209027250346,-147.73915168531286zM107.9423802651755,-88.1346630119571L-140.94378307417992,-69.04815659233314L-151.76841285477678,-61.60066851191027zM107.9423802651755,-88.1346630119571L76.58585897383804,-151.7271422862649L64.21072190666698,-150.04754121246788zM107.9423802651755,-88.1346630119571L-151.76841285477678,-61.60066851191027L-161.7031712212209,-54.14051404301785z" style="fill:rgb(82,237,172)"/><path d="M191.77294629315108,18.50616305287772L138.94428913255885,-138.95710970491672L193.8567839779373,25.80950071032041z" style="fill:rgb(246,166,151)"/><path d="M107.9423802651755,-88.1346630119571L88.2302880955267,-152.7441102134039L76.58585897383804,-151.7271422862649zM107.9423802651755,-88.1346630119571L-161.7031712212209,-54.14051404301785L-170.6430310087771,-46.72355488145388z" style="fill:rgb(82,237,172)"/><path d="M-120.01626551044089,154.64793894556192L-193.5359980424555,2.9627811139128752L-123.78648625888616,148.02619127965107z" style="fill:rgb(15,71,152)"/><path d="M107.9423802651755,-88.1346630119571L99.0257046634897,-153.06577134849226L88.2302880955267,-152.7441102134039zM107.9423802651755,-88.1346630119571L-170.6430310087771,-46.72355488145388L-178.48082231448151,-39.40938950051928z" style="fill:rgb(82,237,172)"/><path d="M193.8567839779373,25.80950071032041L140.28236175503935,-133.80783137030514L194.230184609307,33.85222878027136z" style="fill:rgb(245,161,162)"/><path d="M107.9423802651755,-88.1346630119571L108.84993847857898,-152.661830373877L99.0257046634897,-153.06577134849226zM107.9423802651755,-88.1346630119571L-178.48082231448151,-39.40938950051928L-185.10749282542042,-32.26224187900148z" style="fill:rgb(82,237,172)"/><path d="M-123.78648625888616,148.02619127965107L-193.5359980424555,2.9627811139128752L-196.34017124287163,-1.5940188612228516z" style="fill:rgb(15,71,152)"/><path d="M-114.50433806385259,160.59211496951815L-188.87743909006892,6.796739138352276L-120.01626551044089,154.64793894556192z" style="fill:rgb(20,68,163)"/><path d="M193.8567839779373,25.80950071032041L138.94428913255885,-138.95710970491672L140.28236175503935,-133.80783137030514z" style="fill:rgb(246,166,151)"/><path d="M107.9423802651755,-88.1346630119571L117.57666139206643,-151.5043671376481L108.84993847857898,-152.661830373877zM107.9423802651755,-88.1346630119571L-185.10749282542042,-32.26224187900148L-190.4135932566066,-25.351084803771233z" style="fill:rgb(82,237,172)"/><path d="M194.230184609307,33.85222878027136L139.79808184875043,-127.87465154897889L192.8083775786252,42.57297984413594z" style="fill:rgb(242,155,174)"/><path d="M107.9423802651755,-88.1346630119571L125.07742627646148,-149.5699214536582L117.57666139206643,-151.5043671376481zM107.9423802651755,-88.1346630119571L-190.4135932566066,-25.351084803771233L-194.29111356200434,-18.749167162542815z" style="fill:rgb(82,237,172)"/><path d="M-120.01626551044089,154.64793894556192L-188.87743909006892,6.796739138352276L-193.5359980424555,2.9627811139128752z" style="fill:rgb(20,68,163)"/><path d="M-107.23519760502747,165.75532880982664L-182.32860996543897,9.825851003980532L-114.50433806385259,160.59211496951815z" style="fill:rgb(26,66,175)"/><path d="M194.230184609307,33.85222878027136L140.28236175503935,-133.80783137030514L139.79808184875043,-127.87465154897889z" style="fill:rgb(245,161,162)"/><path d="M107.9423802651755,-88.1346630119571L131.22313271823126,-146.8402220792931L125.07742627646148,-149.5699214536582zM107.9423802651755,-88.1346630119571L-194.29111356200434,-18.749167162542815L-196.6354909976812,-12.534482022218247z" style="fill:rgb(82,237,172)"/><path d="M192.8083775786252,42.57297984413594L137.40647774850484,-121.19000947727734L189.52673238595224,51.894077535942166z" style="fill:rgb(239,149,184)"/><path d="M-98.21958904676355,170.0375693914879L-173.87975910717375,11.972036739403594L-107.23519760502747,165.75532880982664z" style="fill:rgb(32,65,185)"/><path d="M-114.50433806385259,160.59211496951815L-182.32860996543897,9.825851003980532L-188.87743909006892,6.796739138352276z" style="fill:rgb(26,66,175)"/><path d="M107.9423802651755,-88.1346630119571L135.88641060443848,-143.30356021193663L131.22313271823126,-146.8402220792931zM107.9423802651755,-88.1346630119571L-196.6354909976812,-12.534482022218247L-197.34809366179448,-6.788153518320551z" style="fill:rgb(82,237,172)"/><path d="M192.8083775786252,42.57297984413594L139.79808184875043,-127.87465154897889L137.40647774850484,-121.19000947727734z" style="fill:rgb(242,155,174)"/><path d="M189.52673238595224,51.894077535942166L133.04430052483102,-113.80137662711152L184.34548011210987,61.72148003901834z" style="fill:rgb(234,143,195)"/><path d="M107.9423802651755,-88.1346630119571L138.94428913255885,-138.95710970491672L135.88641060443848,-143.30356021193663zM107.9423802651755,-88.1346630119571L-197.34809366179448,-6.788153518320551L-196.34017124287163,-1.5940188612228516z" style="fill:rgb(82,237,172)"/><path d="M-87.49724874136443,173.34410930838723L-163.55314887020847,13.165963069476575L-98.21958904676355,170.0375693914879z" style="fill:rgb(40,64,196)"/><path d="M-107.23519760502747,165.75532880982664L-173.87975910717375,11.972036739403594L-182.32860996543897,9.825851003980532z" style="fill:rgb(32,65,185)"/><path d="M189.52673238595224,51.894077535942166L137.40647774850484,-121.19000947727734L133.04430052483102,-113.80137662711152z" style="fill:rgb(239,149,184)"/><path d="M184.34548011210987,61.72148003901834L126.67575674857606,-105.77279004253681L177.2538762998829,71.94486040285798z" style="fill:rgb(228,137,204)"/><path d="M107.9423802651755,-88.1346630119571L140.28236175503935,-133.80783137030514L138.94428913255885,-138.95710970491672zM107.9423802651755,-88.1346630119571L-196.34017124287163,-1.5940188612228516L-193.5359980424555,2.9627811139128752z" style="fill:rgb(82,237,172)"/><path d="M-75.1411082724861,175.58965551975388L-151.4055213532852,13.348168987263113L-87.49724874136443,173.34410930838723z" style="fill:rgb(49,63,205)"/><path d="M-98.21958904676355,170.0375693914879L-163.55314887020847,13.165963069476575L-173.87975910717375,11.972036739403594z" style="fill:rgb(40,64,196)"/><path d="M107.9423802651755,-88.1346630119571L139.79808184875043,-127.87465154897889L140.28236175503935,-133.80783137030514z" style="fill:rgb(82,237,172)"/><path d="M184.34548011210987,61.72148003901834L133.04430052483102,-113.80137662711152L126.67575674857606,-105.77279004253681z" style="fill:rgb(234,143,195)"/><path d="M177.2538762998829,71.94486040285798L118.2973705944266,-97.18468904302183L168.2751266438883,82.4377424933079z" style="fill:rgb(221,130,213)"/><path d="M107.9423802651755,-88.1346630119571L-193.5359980424555,2.9627811139128752L-188.87743909006892,6.796739138352276z" style="fill:rgb(82,237,172)"/><path d="M-61.25884865966194,176.70142135157917L-137.5326294787911,12.473681315455686L-75.1411082724861,175.58965551975388z" style="fill:rgb(58,64,214)"/><path d="M107.9423802651755,-88.1346630119571L137.40647774850484,-121.19000947727734L139.79808184875043,-127.87465154897889z" style="fill:rgb(82,237,172)"/><path d="M-87.49724874136443,173.34410930838723L-151.4055213532852,13.348168987263113L-163.55314887020847,13.165963069476575z" style="fill:rgb(49,63,205)"/><path d="M107.9423802651755,-88.1346630119571L-188.87743909006892,6.796739138352276L-182.32860996543897,9.825851003980532z" style="fill:rgb(82,237,172)"/><path d="M168.2751266438883,82.4377424933079L107.9423802651755,-88.1346630119571L157.46904642505592,93.06034081045357z" style="fill:rgb(213,124,221)"/><path d="M177.2538762998829,71.94486040285798L126.67575674857606,-105.77279004253681L118.2973705944266,-97.18468904302183z" style="fill:rgb(228,137,204)"/><path d="M-45.99424174521056,176.62260877987677L-122.07039407645489,10.515130141329406L-61.25884865966194,176.70142135157917z" style="fill:rgb(69,65,222)"/><path d="M107.9423802651755,-88.1346630119571L133.04430052483102,-113.80137662711152L137.40647774850484,-121.19000947727734zM107.9423802651755,-88.1346630119571L-182.32860996543897,9.825851003980532L-173.87975910717375,11.972036739403594z" style="fill:rgb(82,237,172)"/><path d="M157.46904642505592,93.06034081045357L95.68498045256786,-78.73650411638293L144.93401826130318,103.66134962192014z" style="fill:rgb(204,117,228)"/><path d="M-75.1411082724861,175.58965551975388L-137.5326294787911,12.473681315455686L-151.4055213532852,13.348168987263113z" style="fill:rgb(58,64,214)"/><path d="M168.2751266438883,82.4377424933079L118.2973705944266,-97.18468904302183L107.9423802651755,-88.1346630119571z" style="fill:rgb(221,130,213)"/><path d="M-29.52656209690794,175.3163892274335L-105.1958422944751,7.4639497076954955L-45.99424174521056,176.62260877987677z" style="fill:rgb(79,66,228)"/><path d="M107.9423802651755,-88.1346630119571L126.67575674857606,-105.77279004253681L133.04430052483102,-113.80137662711152zM107.9423802651755,-88.1346630119571L-173.87975910717375,11.972036739403594L-163.55314887020847,13.165963069476575z" style="fill:rgb(82,237,172)"/><path d="M144.93401826130318,103.66134962192014L81.64237689968353,-69.11837554575642L130.80893981974208,114.08145209468701z" style="fill:rgb(195,111,234)"/><path d="M-12.069039648180397,172.7676163251653L-87.12539018769573,3.334655908134674L-29.52656209690794,175.3163892274335z" style="fill:rgb(91,68,234)"/><path d="M-61.25884865966194,176.70142135157917L-122.07039407645489,10.515130141329406L-137.5326294787911,12.473681315455686z" style="fill:rgb(69,65,222)"/><path d="M157.46904642505592,93.06034081045357L107.9423802651755,-88.1346630119571L95.68498045256786,-78.73650411638293z" style="fill:rgb(213,124,221)"/><path d="M130.80893981974208,114.08145209468701L65.97488381142203,-59.42122320651954L115.2711336694953,124.15773573053889z" style="fill:rgb(184,105,239)"/><path d="M107.9423802651755,-88.1346630119571L118.2973705944266,-97.18468904302183L126.67575674857606,-105.77279004253681zM107.9423802651755,-88.1346630119571L-163.55314887020847,13.165963069476575L-151.4055213532852,13.348168987263113z" style="fill:rgb(82,237,172)"/><path d="M6.134743999276555,168.986342595592L-68.11099441790692,-1.8359163880960396L-12.069039648180397,172.7676163251653z" style="fill:rgb(102,71,239)"/><path d="M115.2711336694953,124.15773573053889L48.88554708747716,-49.794080780468484L98.5342173571671,133.72761336697897z" style="fill:rgb(174,99,242)"/><path d="M-45.99424174521056,176.62260877987677L-105.1958422944751,7.4639497076954955L-122.07039407645489,10.515130141329406z" style="fill:rgb(79,66,228)"/><path d="M24.817402243132,164.0082366081638L-48.4356259130599,-7.985864916725364L6.134743999276555,168.986342595592z" style="fill:rgb(114,75,243)"/><path d="M144.93401826130318,103.66134962192014L95.68498045256786,-78.73650411638293L81.64237689968353,-69.11837554575642z" style="fill:rgb(204,117,228)"/><path d="M107.9423802651755,-88.1346630119571L-151.4055213532852,13.348168987263113L-137.5326294787911,12.473681315455686z" style="fill:rgb(82,237,172)"/><path d="M98.5342173571671,133.72761336697897L30.616064578798113,-40.39069755394128L80.84262261457904,142.63483107194668z" style="fill:rgb(162,93,245)"/><path d="M43.69298555992745,157.89499361274625L-28.404704540890705,-15.030885599437608L24.817402243132,164.0082366081638z" style="fill:rgb(126,79,245)"/><path d="M80.84262261457904,142.63483107194668L11.441529378232973,-31.364926711515952L62.4665318472779,150.73387826611423z" style="fill:rgb(151,88,246)"/><path d="M62.4665318472779,150.73387826611423L-8.337727561455331,-22.86526146640717L43.69298555992745,157.89499361274625z" style="fill:rgb(139,83,246)"/><path d="M-29.52656209690794,175.3163892274335L-87.12539018769573,3.334655908134674L-105.1958422944751,7.4639497076954955z" style="fill:rgb(91,68,234)"/><path d="M107.9423802651755,-88.1346630119571L-137.5326294787911,12.473681315455686L-122.07039407645489,10.515130141329406z" style="fill:rgb(82,237,172)"/><path d="M130.80893981974208,114.08145209468701L81.64237689968353,-69.11837554575642L65.97488381142203,-59.42122320651954z" style="fill:rgb(195,111,234)"/><path d="M-12.069039648180397,172.7676163251653L-68.11099441790692,-1.8359163880960396L-87.12539018769573,3.334655908134674z" style="fill:rgb(102,71,239)"/><path d="M107.9423802651755,-88.1346630119571L81.64237689968353,-69.11837554575642L95.68498045256786,-78.73650411638293zM107.9423802651755,-88.1346630119571L-122.07039407645489,10.515130141329406L-105.1958422944751,7.4639497076954955z" style="fill:rgb(82,237,172)"/><path d="M115.2711336694953,124.15773573053889L65.97488381142203,-59.42122320651954L48.88554708747716,-49.794080780468484z" style="fill:rgb(184,105,239)"/><path d="M6.134743999276555,168.986342595592L-48.4356259130599,-7.985864916725364L-68.11099441790692,-1.8359163880960396z" style="fill:rgb(114,75,243)"/><path d="M107.9423802651755,-88.1346630119571L65.97488381142203,-59.42122320651954L81.64237689968353,-69.11837554575642z" style="fill:rgb(82,237,172)"/><path d="M98.5342173571671,133.72761336697897L48.88554708747716,-49.794080780468484L30.616064578798113,-40.39069755394128z" style="fill:rgb(174,99,242)"/><path d="M107.9423802651755,-88.1346630119571L-105.1958422944751,7.4639497076954955L-87.12539018769573,3.334655908134674z" style="fill:rgb(82,237,172)"/><path d="M24.817402243132,164.0082366081638L-28.404704540890705,-15.030885599437608L-48.4356259130599,-7.985864916725364z" style="fill:rgb(126,79,245)"/><path d="M80.84262261457904,142.63483107194668L30.616064578798113,-40.39069755394128L11.441529378232973,-31.364926711515952z" style="fill:rgb(162,93,245)"/><path d="M107.9423802651755,-88.1346630119571L48.88554708747716,-49.794080780468484L65.97488381142203,-59.42122320651954z" style="fill:rgb(82,237,172)"/><path d="M43.69298555992745,157.89499361274625L-8.337727561455331,-22.86526146640717L-28.404704540890705,-15.030885599437608z" style="fill:rgb(139,83,246)"/><path d="M62.4665318472779,150.73387826611423L11.441529378232973,-31.364926711515952L-8.337727561455331,-22.86526146640717z" style="fill:rgb(151,88,246)"/><path d="M107.9423802651755,-88.1346630119571L-87.12539018769573,3.334655908134674L-68.11099441790692,-1.8359163880960396zM107.9423802651755,-88.1346630119571L30.616064578798113,-40.39069755394128L48.88554708747716,-49.794080780468484zM107.9423802651755,-88.1346630119571L-68.11099441790692,-1.8359163880960396L-48.4356259130599,-7.985864916725364zM107.9423802651755,-88.1346630119571L11.441529378232973,-31.364926711515952L30.616064578798113,-40.39069755394128zM107.9423802651755,-88.1346630119571L-48.4356259130599,-7.985864916725364L-28.404704540890705,-15.030885599437608zM107.9423802651755,-88.1346630119571L-8.337727561455331,-22.86526146640717L11.441529378232973,-31.364926711515952zM107.9423802651755,-88.1346630119571L-28.404704540890705,-15.030885599437608L-8.337727561455331,-22.86526146640717z" style="fill:rgb(82,237,172)"/></svg>